<?xml version="1.0" encoding="utf-8"?>
<!-- Generator: Adobe Illustrator 14.0.0, SVG Export Plug-In . SVG Version: 6.00 Build 43363)  -->
<!DOCTYPE svg PUBLIC "-//W3C//DTD SVG 1.1//EN" "http://www.w3.org/Graphics/SVG/1.1/DTD/svg11.dtd">
<svg version="1.1" id="Ebene_1" xmlns="http://www.w3.org/2000/svg" xmlns:xlink="http://www.w3.org/1999/xlink" x="0px" y="0px"
	 width="18px" height="18px" viewBox="0 0 18 18" enable-background="new 0 0 18 18" xml:space="preserve">
<g>
	<g>
		<g>
			<circle fill="#FFA700" cx="9" cy="9" r="9"/>
			<rect x="6.087" y="5.448" fill="#FFFFFF" width="1.879" height="2.7"/>
			<rect x="10.108" y="5.448" fill="#FFFFFF" width="1.805" height="2.7"/>
		</g>
		<path fill="#FFFFFF" d="M14.585,10.883c0,0-3.029,4.654-5.66,4.654s-5.509-4.654-5.509-4.654s3.565,1,5.583,1
			C11.019,11.883,14.585,10.883,14.585,10.883z"/>
	</g>
	<path opacity="0.8" d="M17.842,5.094c-0.541-1.959-2.937-3.004-5.349-2.336c-0.512,0.142-0.973,0.36-1.393,0.619
		c-0.57-0.504-1.312-0.82-2.133-0.82c-0.83,0-1.578,0.321-2.152,0.833c-0.408-0.244-0.849-0.454-1.341-0.59
		C3.062,2.13,0.666,3.176,0.125,5.135C-0.418,7.093,1.098,9.223,3.51,9.891c2.412,0.667,4.806-0.379,5.347-2.338
		C9.198,6.319,8.722,5.019,7.72,4.058c0.371-0.206,0.793-0.333,1.248-0.333c0.451,0,0.869,0.126,1.238,0.33
		C9.231,5.012,8.772,6.294,9.11,7.512c0.541,1.959,2.936,3.005,5.348,2.338C16.869,9.182,18.385,7.052,17.842,5.094z"/>
</g>
</svg>
