<?xml version="1.0" encoding="utf-8"?>
<!-- Generator: Adobe Illustrator 14.0.0, SVG Export Plug-In . SVG Version: 6.00 Build 43363)  -->
<!DOCTYPE svg PUBLIC "-//W3C//DTD SVG 1.1//EN" "http://www.w3.org/Graphics/SVG/1.1/DTD/svg11.dtd">
<svg version="1.1" id="Ebene_1" xmlns="http://www.w3.org/2000/svg" xmlns:xlink="http://www.w3.org/1999/xlink" x="0px" y="0px"
	 width="18px" height="18px" viewBox="0 0 18 18" enable-background="new 0 0 18 18" xml:space="preserve">
<g>
	<g>
		<g>
			<circle fill="#FFA700" cx="9" cy="9" r="9"/>
			<rect x="6.087" y="5.847" fill="#FFFFFF" width="1.879" height="2.7"/>
			<rect x="10.107" y="5.847" fill="#FFFFFF" width="1.806" height="2.7"/>
		</g>
		<path fill="#FFFFFF" d="M14.585,10.883c0,0-3.029,4.654-5.66,4.654s-5.509-4.654-5.509-4.654s3.565,1,5.583,1
			C11.02,11.883,14.585,10.883,14.585,10.883z"/>
	</g>
	<path opacity="0.7" enable-background="new    " d="M17.842,5.409c-0.541-1.959-2.937-3.004-5.349-2.336
		C11.98,3.215,11.52,3.433,11.1,3.692c-0.568-0.504-1.312-0.82-2.133-0.82c-0.83,0-1.578,0.321-2.152,0.833
		c-0.408-0.244-0.849-0.454-1.341-0.59C3.062,2.445,0.666,3.491,0.125,5.45c-0.543,1.958,0.973,4.088,3.385,4.755
		c2.412,0.668,4.806-0.379,5.347-2.337C9.198,6.634,8.722,5.334,7.72,4.373C8.091,4.167,8.513,4.04,8.968,4.04
		c0.451,0,0.869,0.126,1.238,0.33C9.231,5.327,8.772,6.609,9.11,7.827c0.54,1.958,2.936,3.005,5.348,2.337
		C16.869,9.497,18.385,7.367,17.842,5.409z"/>
</g>
</svg>
