<?xml version="1.0" encoding="utf-8"?>
<!-- Generator: Adobe Illustrator 14.0.0, SVG Export Plug-In . SVG Version: 6.00 Build 43363)  -->
<!DOCTYPE svg PUBLIC "-//W3C//DTD SVG 1.1//EN" "http://www.w3.org/Graphics/SVG/1.1/DTD/svg11.dtd">
<svg version="1.1" id="Ebene_1" xmlns="http://www.w3.org/2000/svg" xmlns:xlink="http://www.w3.org/1999/xlink" x="0px" y="0px"
	 width="18px" height="18px" viewBox="0 0 18 18" enable-background="new 0 0 18 18" xml:space="preserve">
<g>
	<ellipse fill="#00A7FF" cx="9" cy="16.516" rx="8.758" ry="1.328"/>
	<g>
		<circle fill="#FFA700" cx="9" cy="9" r="9"/>
		<polyline fill="#FFFFFF" points="7.665,3.654 7.665,7.165 3.221,7.165 		"/>
		<polyline fill="#FFFFFF" points="14.793,7.165 10.447,7.165 10.447,3.654 		"/>
		<path fill="#FFFFFF" d="M4.473,15.225c0,0,2.029-3.652,4.658-3.652c2.63,0,4.51,3.652,4.51,3.652s-2.566-1.613-4.583-1.613
			S4.473,15.225,4.473,15.225z"/>
	</g>
	<path fill="#00A7FF" d="M14.568,7.392c0,0,0.024,0.463-0.476,1.375c-0.5,0.913-1.264,1.838-1.264,2.788
		c0,0.951,0.801,1.752,1.764,1.752c0.964,0,1.75-0.789,1.75-1.801c0-1.014-1.008-2.31-1.301-2.876
		C14.631,7.829,14.568,7.392,14.568,7.392z"/>
	<path fill="#00A7FF" d="M17.217,11.686c0,0,0.01,0.174-0.18,0.521c-0.188,0.344-0.477,0.692-0.477,1.053s0.303,0.662,0.666,0.662
		c0.362,0,0.662-0.297,0.662-0.68c0-0.384-0.382-0.873-0.492-1.089C17.242,11.85,17.217,11.686,17.217,11.686z"/>
	<path fill="#00A7FF" d="M15.871,13.934c0,0,0.008,0.174-0.18,0.521c-0.189,0.346-0.479,0.694-0.479,1.053
		c0,0.359,0.304,0.662,0.666,0.662c0.365,0,0.662-0.297,0.662-0.68c0-0.384-0.381-0.873-0.492-1.089
		C15.895,14.098,15.871,13.934,15.871,13.934z"/>
	<path fill="#00A7FF" d="M12.508,7.336c0,0,0.008,0.175-0.18,0.52C12.139,8.201,11.85,8.55,11.85,8.909
		c0,0.359,0.303,0.661,0.666,0.661c0.365,0,0.662-0.296,0.662-0.679c0-0.383-0.381-0.873-0.492-1.087
		C12.531,7.501,12.508,7.336,12.508,7.336z"/>
	<path fill="#00A7FF" d="M3.43,7.392c0,0-0.023,0.463,0.477,1.375c0.5,0.913,1.262,1.838,1.262,2.788
		c0,0.951-0.799,1.752-1.762,1.752c-0.963,0-1.752-0.789-1.752-1.801c0-1.014,1.008-2.31,1.301-2.876
		C3.368,7.829,3.43,7.392,3.43,7.392z"/>
	<path fill="#00A7FF" d="M0.77,11.209c0,0-0.01,0.174,0.18,0.52c0.188,0.347,0.477,0.695,0.477,1.054s-0.303,0.661-0.666,0.661
		c-0.363,0-0.662-0.297-0.662-0.68s0.381-0.873,0.492-1.088C0.745,11.373,0.77,11.209,0.77,11.209z"/>
	<path fill="#00A7FF" d="M2.116,13.457c0,0-0.008,0.176,0.18,0.52c0.189,0.347,0.479,0.695,0.479,1.056s-0.303,0.659-0.666,0.659
		c-0.365,0-0.662-0.297-0.662-0.68s0.381-0.873,0.492-1.086C2.092,13.623,2.116,13.457,2.116,13.457z"/>
	<path fill="#00A7FF" d="M5.493,7.336c0,0-0.01,0.175,0.18,0.52C5.86,8.201,6.149,8.55,6.149,8.909c0,0.359-0.303,0.661-0.666,0.661
		c-0.363,0-0.662-0.296-0.662-0.679c0-0.383,0.381-0.873,0.492-1.087C5.467,7.501,5.493,7.336,5.493,7.336z"/>
</g>
</svg>
