<?xml version="1.0" encoding="utf-8"?>
<!-- Generator: Adobe Illustrator 14.0.0, SVG Export Plug-In . SVG Version: 6.00 Build 43363)  -->
<!DOCTYPE svg PUBLIC "-//W3C//DTD SVG 1.1//EN" "http://www.w3.org/Graphics/SVG/1.1/DTD/svg11.dtd">
<svg version="1.1" id="Ebene_1" xmlns="http://www.w3.org/2000/svg" xmlns:xlink="http://www.w3.org/1999/xlink" x="0px" y="0px"
	 width="18px" height="18px" viewBox="0 0 18 18" enable-background="new 0 0 18 18" xml:space="preserve">
<g>
	<circle fill="#FFA700" cx="9" cy="9" r="9"/>
	<polyline fill="#FFFFFF" points="7.664,12.746 7.664,7.236 3.221,7.236 	"/>
	<polyline fill="#FFFFFF" points="14.793,7.236 10.448,7.236 10.448,12.746 	"/>
	<polygon fill="#FFFFFF" points="13.949,4.05 9,6.807 4.05,4.05 5.354,3.016 9,5.06 12.741,3.127 	"/>
	<polygon fill="#FFFFFF" points="12.786,15.693 5.429,15.693 3.889,13.803 14.181,13.803 	"/>
</g>
<path fill="#FFA700" d="M1.196,0C1.196,0,0,0.933,0,1.771c0,1.653,1.565,2.685,1.565,2.685s0.349-0.34,0.618-0.604
	c0.27-0.262,0.768-0.671,0.768-0.671S2.003,2.974,1.475,2.276C0.519,1.012,1.196,0,1.196,0z"/>
<path fill="#FFA700" d="M16.804,0C16.804,0,18,0.933,18,1.771c0,1.653-1.565,2.685-1.565,2.685s-0.349-0.34-0.618-0.604
	c-0.27-0.262-0.768-0.671-0.768-0.671s0.947-0.207,1.477-0.904C17.481,1.012,16.804,0,16.804,0z"/>
</svg>
