<?xml version="1.0" encoding="utf-8"?>
<!-- Generator: Adobe Illustrator 14.0.0, SVG Export Plug-In . SVG Version: 6.00 Build 43363)  -->
<!DOCTYPE svg PUBLIC "-//W3C//DTD SVG 1.1//EN" "http://www.w3.org/Graphics/SVG/1.1/DTD/svg11.dtd">
<svg version="1.1" id="Ebene_1" xmlns="http://www.w3.org/2000/svg" xmlns:xlink="http://www.w3.org/1999/xlink" x="0px" y="0px"
	 width="18px" height="18px" viewBox="0 0 18 18" enable-background="new 0 0 18 18" xml:space="preserve">
<g>
	<circle fill="#FFA700" cx="9" cy="9" r="9"/>
	<polygon fill="#FFFFFF" points="13.949,4.05 9,6.807 4.05,4.05 5.354,3.016 9,5.06 12.741,3.127 	"/>
	<polygon fill="#FFFFFF" points="13.604,15.212 4.225,15.212 5.225,11.898 12.604,11.898 	"/>
</g>
<path fill="#FFA700" d="M1.196,0C1.196,0,0,0.933,0,1.771c0,1.653,1.565,2.685,1.565,2.685s0.349-0.34,0.618-0.604
	c0.27-0.262,0.768-0.671,0.768-0.671S2.003,2.974,1.475,2.276C0.519,1.012,1.196,0,1.196,0z"/>
<path fill="#FFA700" d="M16.804,0C16.804,0,18,0.933,18,1.771c0,1.653-1.564,2.685-1.564,2.685s-0.35-0.34-0.619-0.604
	c-0.27-0.262-0.768-0.671-0.768-0.671s0.947-0.207,1.477-0.904C17.48,1.012,16.804,0,16.804,0z"/>
<polygon fill="#E2001A" points="12.604,10.503 9.936,10.503 9.936,7.097 12.604,5.63 "/>
<polygon fill="#E2001A" points="7.892,10.403 5.225,10.403 5.225,5.496 7.892,6.996 "/>
</svg>
