<?xml version="1.0" encoding="utf-8"?>
<!-- Generator: Adobe Illustrator 14.0.0, SVG Export Plug-In . SVG Version: 6.00 Build 43363)  -->
<!DOCTYPE svg PUBLIC "-//W3C//DTD SVG 1.1//EN" "http://www.w3.org/Graphics/SVG/1.1/DTD/svg11.dtd">
<svg version="1.1" id="Ebene_1" xmlns="http://www.w3.org/2000/svg" xmlns:xlink="http://www.w3.org/1999/xlink" x="0px" y="0px"
	 width="273px" height="233px" viewBox="0 0 273 233" enable-background="new 0 0 273 233" xml:space="preserve">
<radialGradient id="SVGID_1_" cx="-2296.5381" cy="598.1201" r="90.3199" gradientTransform="matrix(1 0 0 -1 2396.125 734.875)" gradientUnits="userSpaceOnUse">
	<stop  offset="0" style="stop-color:#F6F6F6"/>
	<stop  offset="0.6626" style="stop-color:#ECEDED"/>
	<stop  offset="1" style="stop-color:#B3B3B3"/>
</radialGradient>
<path fill="url(#SVGID_1_)" d="M98.526,53.178c-0.604,0.004-1.205,0.021-1.807,0.035C70.76,53.961,47.418,64.057,30.522,79.906
	c-5.057,4.74-9.531,9.996-13.328,15.678C8.01,109.299,2.799,125.471,3.006,142.729c0.031,2.603,0.184,5.174,0.455,7.715
	c1.842,17.244,9.084,33,20.146,45.857c2.6,3.023,5.41,5.887,8.41,8.568c17.273,15.443,40.734,15.324,66.705,15.451
	c0.601,0,1.205,0.008,1.808,0.012c0.977,0.004,1.951,0.008,2.924,0.008h1.484c24.91-0.031,47.342-1.771,63.672-17.066
	c2.942-2.76,5.686-5.688,8.219-8.772c10.77-13.119,17.641-29.06,19.07-46.356c0.205-2.55,0.299-5.134,0.27-7.734
	c-0.207-17.271-5.809-33.32-15.336-46.822c-3.936-5.588-8.545-10.736-13.721-15.357c-17.383-15.52-41.141-25.061-67.29-25.061
	C99.389,53.17,98.958,53.172,98.526,53.178"/>
<radialGradient id="SVGID_2_" cx="-2295.604" cy="611.8809" r="51.4358" gradientTransform="matrix(1 0 0 -1 2396.125 734.875)" gradientUnits="userSpaceOnUse">
	<stop  offset="0" style="stop-color:#FFFFFF"/>
	<stop  offset="0.2276" style="stop-color:#FBFBFB"/>
	<stop  offset="0.4572" style="stop-color:#EFEFEF"/>
	<stop  offset="0.6877" style="stop-color:#DBDBDB"/>
	<stop  offset="0.9175" style="stop-color:#BFBFBF"/>
	<stop  offset="1" style="stop-color:#B3B3B3"/>
</radialGradient>
<path fill="url(#SVGID_2_)" d="M99.514,73.891c-14.426,0.242-27.459,5.697-36.951,14.389c-2.838,2.6-5.359,5.492-7.51,8.617
	c-5.19,7.561-8.192,16.508-8.192,26.094c0,1.446,0.065,2.879,0.203,4.291c0.906,9.592,4.826,18.395,10.885,25.608
	c1.424,1.697,2.965,3.308,4.615,4.814c9.492,8.695,22.525,14.146,36.951,14.389c0.334,0.004,0.672,0.012,1.006,0.012
	c14.812,0,28.219-5.496,37.932-14.375c1.651-1.514,3.198-3.121,4.623-4.819c6.069-7.22,9.994-16.022,10.905-25.621
	c0.132-1.416,0.201-2.849,0.201-4.299c0-9.594-3.008-18.545-8.209-26.109c-2.147-3.131-4.676-6.021-7.521-8.625
	c-9.709-8.879-23.119-14.373-37.932-14.373C100.186,73.883,99.85,73.887,99.514,73.891"/>
<g>
	
		<radialGradient id="SVGID_3_" cx="-2283.9072" cy="571.4854" r="34.122" gradientTransform="matrix(1 0 0 -1 2396.125 734.875)" gradientUnits="userSpaceOnUse">
		<stop  offset="0" style="stop-color:#E2001A"/>
		<stop  offset="0.3539" style="stop-color:#E2001A"/>
		<stop  offset="0.6685" style="stop-color:#9A141B"/>
		<stop  offset="1" style="stop-color:#9A141B"/>
	</radialGradient>
	<path fill="url(#SVGID_3_)" d="M89.665,128.67c0,42.738,10.096,77.381,22.555,77.381c12.455,0,22.551-34.643,22.551-77.381
		c0-1.678-0.014-3.35-0.045-5.008c-4.613,15.248-12.768,25.383-22.059,25.383c-9.873,0-18.465-11.445-22.887-28.316
		C89.704,123.336,89.665,125.99,89.665,128.67"/>
	
		<radialGradient id="SVGID_4_" cx="-2309.4219" cy="571.4854" r="34.1228" gradientTransform="matrix(1 0 0 -1 2396.125 734.875)" gradientUnits="userSpaceOnUse">
		<stop  offset="0" style="stop-color:#E2001A"/>
		<stop  offset="0.3539" style="stop-color:#E2001A"/>
		<stop  offset="0.6685" style="stop-color:#9A141B"/>
		<stop  offset="1" style="stop-color:#9A141B"/>
	</radialGradient>
	<path fill="url(#SVGID_4_)" d="M64.147,128.67c0,42.738,10.1,77.381,22.557,77.381s22.555-34.643,22.555-77.381
		c0-1.678-0.016-3.35-0.049-5.008c-4.613,15.248-12.768,25.383-22.057,25.383c-9.875,0-18.467-11.445-22.887-28.316
		C64.188,123.336,64.147,125.99,64.147,128.67"/>
</g>
<g>
	
		<linearGradient id="SVGID_5_" gradientUnits="userSpaceOnUse" x1="-2330.2402" y1="586.541" x2="-2264.2061" y2="586.541" gradientTransform="matrix(1 0 0 -1 2396.125 734.875)">
		<stop  offset="0" style="stop-color:#D9D9D9"/>
		<stop  offset="0.4724" style="stop-color:#FFFFFF"/>
		<stop  offset="0.6426" style="stop-color:#FBFBFB"/>
		<stop  offset="0.8142" style="stop-color:#EFEFEF"/>
		<stop  offset="0.986" style="stop-color:#DBDBDB"/>
		<stop  offset="1" style="stop-color:#D9D9D9"/>
	</linearGradient>
	<path fill="url(#SVGID_5_)" d="M66.057,125.65c-0.112,1.063-0.172,2.145-0.172,3.238c0,17.424,23.205,42.129,33.019,42.129
		c11.955,0,33.016-24.705,33.016-42.129c0-0.687-0.025-1.367-0.066-2.041c-6.76,6.217-18.693,10.348-32.293,10.348
		C85.104,137.195,72.53,132.529,66.057,125.65"/>
	<g>
		
			<line fill="none" stroke="#CFD1D2" stroke-width="1.6548" stroke-linecap="round" stroke-linejoin="round" x1="112.315" y1="154.334" x2="112.315" y2="136.121"/>
		
			<line fill="none" stroke="#CFD1D2" stroke-width="1.6548" stroke-linecap="round" stroke-linejoin="round" x1="83.979" y1="152.936" x2="83.979" y2="135.443"/>
		
			<line fill="none" stroke="#CFD1D2" stroke-width="1.6548" stroke-linecap="round" stroke-linejoin="round" x1="98.528" y1="161.43" x2="98.528" y2="170.609"/>
		<path fill="none" stroke="#CFD1D2" stroke-width="1.6548" stroke-linecap="round" stroke-linejoin="round" d="M99.122,161.43
			c-8.709,0-25.807-15.537-32.9-34.772"/>
		<path fill="none" stroke="#CFD1D2" stroke-width="1.6548" stroke-linecap="round" stroke-linejoin="round" d="M131.524,127.877
			c-7.4,17.385-23.961,33.553-32.402,33.553"/>
	</g>
	<path fill="#F29400" d="M99.952,133.131c15.348,0,28.816-5.842,36.441-14.643c0.049,0.957,0.082,1.918,0.082,2.891
		c0,24.656-22.236,55.225-37.266,55.225c-13.922,0-37.264-30.567-37.264-55.225c0-1.549,0.065-3.076,0.194-4.584
		C69.446,126.527,83.641,133.131,99.952,133.131 M66.057,125.65c-0.112,1.063-0.172,2.145-0.172,3.238
		c0,17.424,23.207,42.129,33.019,42.129c11.955,0,33.016-24.705,33.016-42.129c0-0.687-0.025-1.367-0.066-2.041
		c-6.76,6.217-18.693,10.348-32.293,10.348C85.104,137.195,72.53,132.529,66.057,125.65"/>
</g>
<radialGradient id="SVGID_6_" cx="-2296.9014" cy="607.0693" r="32.1653" gradientTransform="matrix(1 0 0 -1 2396.125 734.875)" gradientUnits="userSpaceOnUse">
	<stop  offset="0.2086" style="stop-color:#FEC900"/>
	<stop  offset="0.3079" style="stop-color:#FDC500"/>
	<stop  offset="0.4271" style="stop-color:#FBBB00"/>
	<stop  offset="0.5567" style="stop-color:#F7AA00"/>
	<stop  offset="0.6926" style="stop-color:#F18F00"/>
	<stop  offset="0.7423" style="stop-color:#EF8400"/>
</radialGradient>
<path fill="url(#SVGID_6_)" d="M99.43,116.031c-1.006,0.021-2.006,0.025-2.99,0.018c-19.787-0.137-35.445-5.061-35.553-11.4
	c0.088,5.176,1.521,10.121,3.808,14.693c2.758,5.527,6.754,10.514,11.127,14.727c8.608,8.298,18.654,17.775,23.477,18.199
	c0.242,0.021,0.473,0.027,0.689,0.021c4.246-0.149,14.77-10.067,23.604-19.162c4.225-4.354,8.066-9.463,10.646-15.056
	c2.137-4.632,3.408-9.602,3.317-14.75C137.672,109.975,120.606,115.666,99.43,116.031"/>
<g>
	<g opacity="0.6">
		<g>
			<g>
				<g>
					<g>
						<path id="SVGID_7_" fill="#E6E6E6" d="M125.479,141.189c29.443,26.93,69.934,23.498,88.145,23.498
							c4.709,0,9.272-0.316,13.617-0.914c12.461-1.707,23.106-5.703,30.153-11.058c5.738-4.358,9.084-9.616,9.084-15.278
							c0-2.525-0.668-4.974-1.914-7.293c-1.551-2.881-3.995-5.57-7.17-7.982c-7.047-5.359-17.692-9.352-30.153-11.061
							c-4.345-0.596-8.908-0.912-13.617-0.912c-18.211,0-34.272,4.746-43.777,11.973c-3.174,2.412-5.618,5.102-7.163,7.982
							c-1.253,2.319,0.354,12.733,2.428,14.176C171.553,148.797,119.745,136.83,125.479,141.189"/>
					</g>
				</g>
			</g>
		</g>
	</g>
	<g>
		<g>
			<path fill="#58585A" d="M173.616,130.775c0-0.953,0.289-1.453,0.973-1.453c0.681,0,0.97,0.5,0.97,1.453v1.84l1.342-0.672
				c0.271-0.131,0.449-0.174,0.629-0.174c0.629,0,0.988,0.455,0.988,1.321c0,0.521-0.128,0.822-0.5,0.955l-1.923,0.69l0.806,1.232
				c0.485,0.76,0.668,1.062,0.668,1.41c0,0.67-0.56,1.168-1.062,1.168c-0.358,0-0.592-0.086-1.076-0.93l-0.842-1.473l-0.846,1.473
				c-0.484,0.844-0.718,0.93-1.076,0.93c-0.502,0-1.062-0.498-1.062-1.168c0-0.348,0.183-0.65,0.666-1.41l0.806-1.232l-1.92-0.69
				c-0.377-0.133-0.5-0.437-0.5-0.955c0-0.866,0.358-1.321,0.985-1.321c0.183,0,0.359,0.043,0.629,0.174l1.345,0.672V130.775z"/>
			<path fill="none" stroke="#FFFFFF" stroke-width="3.15" stroke-linecap="round" stroke-linejoin="round" d="M173.616,130.775
				c0-0.953,0.289-1.453,0.973-1.453c0.681,0,0.97,0.5,0.97,1.453v1.84l1.342-0.672c0.271-0.131,0.449-0.174,0.629-0.174
				c0.629,0,0.988,0.455,0.988,1.321c0,0.521-0.128,0.822-0.5,0.955l-1.923,0.69l0.806,1.232c0.485,0.76,0.668,1.062,0.668,1.41
				c0,0.67-0.56,1.168-1.062,1.168c-0.358,0-0.592-0.086-1.076-0.93l-0.842-1.473l-0.846,1.473c-0.484,0.844-0.718,0.93-1.076,0.93
				c-0.502,0-1.062-0.498-1.062-1.168c0-0.348,0.183-0.65,0.666-1.41l0.806-1.232l-1.92-0.69c-0.377-0.133-0.5-0.437-0.5-0.955
				c0-0.866,0.358-1.321,0.985-1.321c0.183,0,0.359,0.043,0.629,0.174l1.345,0.672V130.775z"/>
			<path fill="#58585A" d="M187.02,142.902h-0.037c-0.375,1.084-1.452,1.562-2.582,1.562c-1.704,0-4.02-1.387-4.02-5.418
				c0-2.967,1.49-5.459,4.09-5.459c1.078,0,2.531,0.606,2.836,2.037h0.035c0-1.147,0.559-2.037,1.615-2.037
				c1.113,0,1.652,0.738,1.652,2.168v9.121c0,3.529-2.138,4.808-5.263,4.808c-3.532,0-4.43-1.711-4.43-2.601
				c0-0.91,0.504-1.646,1.346-1.646c0.861,0,1.507,1.387,2.783,1.387c1.506,0,1.974-0.822,1.974-2.426V142.902L187.02,142.902z
				 M185.622,136.709c-1.133,0-1.545,0.932-1.545,2.383s0.412,2.383,1.545,2.383c1.147,0,1.541-1.127,1.541-2.383
				S186.77,136.709,185.622,136.709"/>
			<path fill="none" stroke="#FFFFFF" stroke-width="3.15" stroke-linecap="round" stroke-linejoin="round" d="M187.02,142.902
				h-0.037c-0.375,1.084-1.452,1.562-2.582,1.562c-1.704,0-4.02-1.387-4.02-5.418c0-2.967,1.49-5.459,4.09-5.459
				c1.078,0,2.531,0.606,2.836,2.037h0.035c0-1.147,0.559-2.037,1.615-2.037c1.113,0,1.652,0.738,1.652,2.168v9.121
				c0,3.529-2.138,4.808-5.263,4.808c-3.532,0-4.43-1.711-4.43-2.601c0-0.91,0.504-1.646,1.346-1.646
				c0.861,0,1.507,1.387,2.783,1.387c1.506,0,1.974-0.822,1.974-2.426V142.902L187.02,142.902z M185.622,136.709
				c-1.133,0-1.545,0.932-1.545,2.383s0.412,2.383,1.545,2.383c1.147,0,1.541-1.127,1.541-2.383S186.77,136.709,185.622,136.709z"/>
			<path fill="#58585A" d="M202.555,141.887c0,0.779,0.111,1.473,0.111,2.014c0,1.105-0.846,1.58-1.725,1.58
				c-1.273,0-1.742-0.776-1.865-1.795c-0.717,1.297-2.027,1.795-3.303,1.795c-2.045,0-3.502-1.016-3.502-3.508
				c0-1.885,1.08-3.291,4.756-3.574c1.383-0.106,1.938-0.346,1.938-1.104c0-0.717-0.5-1.105-1.488-1.105
				c-1.598,0-1.971,1.537-3.229,1.537c-0.738,0-1.168-0.498-1.168-1.387c0-1.666,1.938-2.75,4.506-2.75
				c1.953,0,4.969,0.543,4.969,3.336V141.887z M198.965,140.109c-0.518,0.672-1.721,0.543-2.387,0.865
				c-0.301,0.151-0.5,0.457-0.5,0.932c0,0.674,0.539,1.104,1.131,1.104c1.039,0,1.756-0.778,1.756-1.622V140.109z"/>
			<path fill="none" stroke="#FFFFFF" stroke-width="3.15" stroke-linecap="round" stroke-linejoin="round" d="M202.555,141.887
				c0,0.779,0.111,1.473,0.111,2.014c0,1.105-0.846,1.58-1.725,1.58c-1.273,0-1.742-0.776-1.865-1.795
				c-0.717,1.297-2.027,1.795-3.303,1.795c-2.045,0-3.502-1.016-3.502-3.508c0-1.885,1.08-3.291,4.756-3.574
				c1.383-0.106,1.938-0.346,1.938-1.104c0-0.717-0.5-1.105-1.488-1.105c-1.598,0-1.971,1.537-3.229,1.537
				c-0.738,0-1.168-0.498-1.168-1.387c0-1.666,1.938-2.75,4.506-2.75c1.953,0,4.969,0.543,4.969,3.336V141.887z M198.965,140.109
				c-0.518,0.672-1.721,0.543-2.387,0.865c-0.301,0.151-0.5,0.457-0.5,0.932c0,0.674,0.539,1.104,1.131,1.104
				c1.039,0,1.756-0.778,1.756-1.622V140.109z"/>
			<path fill="#58585A" d="M209.446,133.59c2.582,0,4.286,1.494,4.286,3.055c0,1.019-0.592,1.646-1.329,1.646
				c-0.949,0-1.359-1.582-2.671-1.582c-1.508,0-1.848,1.518-1.848,2.729c0,1.476,0.391,2.924,1.687,2.924
				c1.235,0,1.793-1.579,2.815-1.579c0.877,0,1.383,0.866,1.383,1.646c0,0.91-1.043,3.053-4.323,3.053
				c-2.943,0-5.261-1.84-5.261-5.955C204.186,135.43,206.502,133.59,209.446,133.59"/>
			<path fill="none" stroke="#FFFFFF" stroke-width="3.15" stroke-linecap="round" stroke-linejoin="round" d="M209.446,133.59
				c2.582,0,4.286,1.494,4.286,3.055c0,1.019-0.592,1.646-1.329,1.646c-0.949,0-1.359-1.582-2.671-1.582
				c-1.508,0-1.848,1.518-1.848,2.729c0,1.476,0.391,2.924,1.687,2.924c1.235,0,1.793-1.579,2.815-1.579
				c0.877,0,1.383,0.866,1.383,1.646c0,0.91-1.043,3.053-4.323,3.053c-2.943,0-5.261-1.84-5.261-5.955
				C204.186,135.43,206.502,133.59,209.446,133.59z"/>
			<path fill="#58585A" d="M221.051,134.52c0.484-0.713,0.898-0.93,1.418-0.93c0.824,0,1.631,0.734,1.631,1.863
				c0,0.475-0.301,1.125-0.678,1.559l-1.203,1.387l1.791,3.099c0.398,0.692,0.701,1.362,0.701,1.994c0,1.211-0.861,1.989-1.85,1.989
				c-0.949,0-1.31-0.389-2.117-2.078l-1.004-2.079l-0.81,0.934v0.994c0,1.537-0.643,2.229-1.791,2.229
				c-1.147,0-1.797-0.692-1.797-2.229v-11.694c0-1.541,0.648-2.234,1.797-2.234c1.149,0,1.791,0.693,1.791,2.234v6.043h0.039
				L221.051,134.52z"/>
			<path fill="none" stroke="#FFFFFF" stroke-width="3.15" stroke-linecap="round" stroke-linejoin="round" d="M221.051,134.52
				c0.484-0.713,0.898-0.93,1.418-0.93c0.824,0,1.631,0.734,1.631,1.863c0,0.475-0.301,1.125-0.678,1.559l-1.203,1.387l1.791,3.099
				c0.398,0.692,0.701,1.362,0.701,1.994c0,1.211-0.861,1.989-1.85,1.989c-0.949,0-1.31-0.389-2.117-2.078l-1.004-2.079l-0.81,0.934
				v0.994c0,1.537-0.643,2.229-1.791,2.229c-1.147,0-1.797-0.692-1.797-2.229v-11.694c0-1.541,0.648-2.234,1.797-2.234
				c1.149,0,1.791,0.693,1.791,2.234v6.043h0.039L221.051,134.52z"/>
			<path fill="#58585A" d="M231.047,145.48c-2.945,0-5.26-1.84-5.26-5.955c0-4.096,2.314-5.938,5.26-5.938
				c4.125,0,5.381,3.424,5.381,5.113c0,1.344-0.521,1.817-1.703,1.817h-5.242c0.093,1.433,0.773,2.363,1.976,2.363
				c1.346,0,2.137-1.387,3.269-1.387c0.643,0,1.147,0.76,1.147,1.473C235.874,144.203,234.618,145.48,231.047,145.48
				 M232.948,138.312c0-1.56-0.81-2.123-1.724-2.123c-0.826,0-1.686,0.541-1.742,2.123H232.948z"/>
			<path fill="none" stroke="#FFFFFF" stroke-width="3.15" stroke-linecap="round" stroke-linejoin="round" d="M231.047,145.48
				c-2.945,0-5.26-1.84-5.26-5.955c0-4.096,2.314-5.938,5.26-5.938c4.125,0,5.381,3.424,5.381,5.113
				c0,1.344-0.521,1.817-1.703,1.817h-5.242c0.093,1.433,0.773,2.363,1.976,2.363c1.346,0,2.137-1.387,3.269-1.387
				c0.643,0,1.147,0.76,1.147,1.473C235.874,144.203,234.618,145.48,231.047,145.48z M232.948,138.312
				c0-1.56-0.81-2.123-1.724-2.123c-0.826,0-1.686,0.541-1.742,2.123H232.948z"/>
			<path fill="#58585A" d="M237.93,135.799c0-1.516,0.771-2.209,1.672-2.209c0.912,0,1.648,0.605,1.648,2.295v0.869h0.037
				c0.629-2.061,1.346-3.164,2.404-3.164c1.129,0,1.51,1.082,1.51,2.059c0,1.105-0.381,1.797-1.008,1.992l-1.002,0.303
				c-0.988,0.304-1.562,0.759-1.562,2.232v3.096c0,1.517-0.772,2.209-1.848,2.209c-1.082,0-1.854-0.692-1.854-2.209v-7.473H237.93z"
				/>
			<path fill="none" stroke="#FFFFFF" stroke-width="3.15" stroke-linecap="round" stroke-linejoin="round" d="M237.93,135.799
				c0-1.516,0.771-2.209,1.672-2.209c0.912,0,1.648,0.605,1.648,2.295v0.869h0.037c0.629-2.061,1.346-3.164,2.404-3.164
				c1.129,0,1.51,1.082,1.51,2.059c0,1.105-0.381,1.797-1.008,1.992l-1.002,0.303c-0.988,0.304-1.562,0.759-1.562,2.232v3.096
				c0,1.517-0.772,2.209-1.848,2.209c-1.082,0-1.854-0.692-1.854-2.209v-7.473H237.93z"/>
			<path fill="#58585A" d="M249.667,130.775c0-0.953,0.289-1.453,0.969-1.453c0.683,0,0.972,0.5,0.972,1.453v1.84l1.344-0.672
				c0.268-0.131,0.449-0.174,0.629-0.174c0.627,0,0.986,0.455,0.986,1.321c0,0.521-0.125,0.822-0.5,0.955l-1.92,0.69l0.805,1.232
				c0.486,0.76,0.666,1.062,0.666,1.41c0,0.67-0.56,1.168-1.06,1.168c-0.36,0-0.592-0.086-1.077-0.93l-0.845-1.473l-0.842,1.473
				c-0.485,0.844-0.719,0.93-1.078,0.93c-0.502,0-1.057-0.498-1.057-1.168c0-0.348,0.18-0.65,0.662-1.41l0.807-1.232l-1.92-0.69
				c-0.377-0.133-0.502-0.437-0.502-0.955c0-0.866,0.358-1.321,0.988-1.321c0.18,0,0.354,0.043,0.627,0.174l1.346,0.672V130.775z"/>
			<path fill="none" stroke="#FFFFFF" stroke-width="3.15" stroke-linecap="round" stroke-linejoin="round" d="M249.667,130.775
				c0-0.953,0.289-1.453,0.969-1.453c0.683,0,0.972,0.5,0.972,1.453v1.84l1.344-0.672c0.268-0.131,0.449-0.174,0.629-0.174
				c0.627,0,0.986,0.455,0.986,1.321c0,0.521-0.125,0.822-0.5,0.955l-1.92,0.69l0.805,1.232c0.486,0.76,0.666,1.062,0.666,1.41
				c0,0.67-0.56,1.168-1.06,1.168c-0.36,0-0.592-0.086-1.077-0.93l-0.845-1.473l-0.842,1.473c-0.485,0.844-0.719,0.93-1.078,0.93
				c-0.502,0-1.057-0.498-1.057-1.168c0-0.348,0.18-0.65,0.662-1.41l0.807-1.232l-1.92-0.69c-0.377-0.133-0.502-0.437-0.502-0.955
				c0-0.866,0.358-1.321,0.988-1.321c0.18,0,0.354,0.043,0.627,0.174l1.346,0.672V130.775z"/>
			<path fill="#E2001A" d="M173.616,130.775c0-0.957,0.289-1.453,0.973-1.453c0.681,0,0.97,0.496,0.97,1.453v1.84l1.342-0.672
				c0.271-0.131,0.449-0.174,0.629-0.174c0.629,0,0.988,0.455,0.988,1.323c0,0.519-0.128,0.82-0.5,0.949l-1.923,0.692l0.806,1.234
				c0.485,0.76,0.668,1.062,0.668,1.412c0,0.668-0.56,1.166-1.062,1.166c-0.358,0-0.592-0.086-1.076-0.93l-0.842-1.473l-0.846,1.473
				c-0.484,0.844-0.718,0.93-1.076,0.93c-0.502,0-1.062-0.498-1.062-1.166c0-0.35,0.183-0.652,0.666-1.412l0.806-1.234l-1.92-0.692
				c-0.377-0.129-0.5-0.433-0.5-0.949c0-0.868,0.358-1.323,0.985-1.323c0.183,0,0.359,0.043,0.629,0.174l1.345,0.672V130.775z"/>
			<path fill="#E2001A" d="M187.02,142.902h-0.037c-0.375,1.084-1.452,1.562-2.582,1.562c-1.704,0-4.02-1.387-4.02-5.418
				c0-2.967,1.49-5.459,4.09-5.459c1.078,0,2.531,0.606,2.836,2.037h0.035c0-1.147,0.559-2.037,1.615-2.037
				c1.113,0,1.652,0.738,1.652,2.168v9.121c0,3.529-2.138,4.808-5.263,4.808c-3.532,0-4.43-1.711-4.43-2.601
				c0-0.91,0.504-1.646,1.346-1.646c0.861,0,1.507,1.387,2.783,1.387c1.506,0,1.974-0.822,1.974-2.426V142.902L187.02,142.902z
				 M185.622,136.709c-1.133,0-1.545,0.932-1.545,2.383s0.412,2.383,1.545,2.383c1.147,0,1.541-1.127,1.541-2.383
				S186.77,136.709,185.622,136.709"/>
			<path fill="#E2001A" d="M202.555,141.887c0,0.779,0.111,1.473,0.111,2.014c0,1.105-0.846,1.58-1.725,1.58
				c-1.273,0-1.742-0.776-1.865-1.795c-0.717,1.297-2.027,1.795-3.303,1.795c-2.045,0-3.502-1.016-3.502-3.508
				c0-1.885,1.08-3.291,4.756-3.574c1.383-0.106,1.938-0.346,1.938-1.104c0-0.717-0.5-1.105-1.488-1.105
				c-1.598,0-1.971,1.537-3.229,1.537c-0.738,0-1.168-0.498-1.168-1.387c0-1.668,1.938-2.75,4.506-2.75
				c1.953,0,4.969,0.541,4.969,3.336V141.887z M198.965,140.109c-0.518,0.672-1.721,0.543-2.387,0.865
				c-0.301,0.151-0.5,0.457-0.5,0.932c0,0.674,0.539,1.104,1.131,1.104c1.039,0,1.756-0.778,1.756-1.622V140.109z"/>
			<path fill="#E2001A" d="M209.446,133.588c2.582,0,4.286,1.496,4.286,3.057c0,1.019-0.592,1.646-1.329,1.646
				c-0.949,0-1.359-1.582-2.671-1.582c-1.508,0-1.848,1.516-1.848,2.729c0,1.476,0.391,2.924,1.687,2.924
				c1.235,0,1.793-1.579,2.815-1.579c0.877,0,1.383,0.866,1.383,1.646c0,0.91-1.043,3.053-4.323,3.053
				c-2.943,0-5.261-1.84-5.261-5.955C204.186,135.43,206.502,133.588,209.446,133.588"/>
			<path fill="#E2001A" d="M221.051,134.52c0.484-0.713,0.898-0.932,1.418-0.932c0.824,0,1.631,0.738,1.631,1.865
				c0,0.475-0.301,1.125-0.678,1.561l-1.203,1.385l1.791,3.099c0.398,0.692,0.701,1.362,0.701,1.994c0,1.211-0.861,1.989-1.85,1.989
				c-0.949,0-1.31-0.389-2.117-2.078l-1.004-2.079l-0.81,0.934v0.994c0,1.537-0.643,2.229-1.791,2.229
				c-1.147,0-1.797-0.692-1.797-2.229v-11.694c0-1.539,0.648-2.232,1.797-2.232c1.149,0,1.791,0.693,1.791,2.232v6.043h0.039
				L221.051,134.52z"/>
			<path fill="#E2001A" d="M231.047,145.48c-2.945,0-5.26-1.84-5.26-5.955c0-4.096,2.314-5.938,5.26-5.938
				c4.125,0,5.381,3.424,5.381,5.113c0,1.344-0.521,1.817-1.703,1.817h-5.242c0.093,1.433,0.773,2.363,1.976,2.363
				c1.346,0,2.137-1.387,3.269-1.387c0.643,0,1.147,0.76,1.147,1.473C235.874,144.203,234.618,145.48,231.047,145.48
				 M232.948,138.312c0-1.56-0.81-2.123-1.724-2.123c-0.826,0-1.686,0.541-1.742,2.123H232.948z"/>
			<path fill="#E2001A" d="M237.93,135.799c0-1.518,0.771-2.211,1.672-2.211c0.912,0,1.648,0.607,1.648,2.297v0.869h0.037
				c0.629-2.061,1.346-3.166,2.404-3.166c1.129,0,1.51,1.084,1.51,2.061c0,1.105-0.381,1.797-1.008,1.992l-1.002,0.303
				c-0.988,0.304-1.562,0.759-1.562,2.232v3.096c0,1.517-0.772,2.209-1.848,2.209c-1.082,0-1.854-0.692-1.854-2.209v-7.473H237.93z"
				/>
			<path fill="#E2001A" d="M249.667,130.775c0-0.957,0.289-1.453,0.969-1.453c0.683,0,0.972,0.496,0.972,1.453v1.84l1.344-0.672
				c0.268-0.131,0.449-0.174,0.629-0.174c0.627,0,0.986,0.455,0.986,1.323c0,0.519-0.125,0.82-0.5,0.949l-1.92,0.692l0.805,1.234
				c0.486,0.76,0.666,1.062,0.666,1.412c0,0.668-0.56,1.166-1.06,1.166c-0.36,0-0.592-0.086-1.077-0.93l-0.845-1.473l-0.842,1.473
				c-0.485,0.844-0.719,0.93-1.078,0.93c-0.502,0-1.057-0.498-1.057-1.166c0-0.35,0.18-0.652,0.662-1.412l0.807-1.234l-1.92-0.692
				c-0.377-0.129-0.502-0.433-0.502-0.949c0-0.868,0.358-1.323,0.988-1.323c0.18,0,0.354,0.043,0.627,0.174l1.346,0.672V130.775z"/>
		</g>
	</g>
</g>
<g>
	<g>
		<path fill="#862122" d="M89.875,6.248c4.129-1.141,10.447,1.504,18.158,11.047c11.115,13.846,4.369,28.055-0.549,38.426
			c12.1-11.926,16.75-16.512,21.836-21.522c0.312-1.098,3.086-10.322,5.479-10.791c0.488-0.225,1.994,0.838,3.886,7.252
			c13.284,46.994-16.854,58.387-18.394,58.961c-8.342,5.963-16.232,11.66-23.424,16.857c-6.695-1.562-14.17-3.301-20.291-4.729
			c-0.002-0.387-0.127-37.762-19.479-33.064c-5.572,1.514-12.424,6.824-21.033,17.812c-9.369,11.934-14.965,16.873-17.74,17.582
			c-7.117,3.141,2.865-28.127,6.438-37.584c3.64-9.652,12.086-27.631,24.291-30.842c3.662-0.984,7.754-0.676,12.32,1.631
			c12.99,6.602,23.396,14.631,27.543,13.668c4.012-1.723,2.629-6.832-1.871-15.768C80.266,21.379,83.018,7.967,89.875,6.248"/>
		<path fill="#872022" d="M89.834,6.279c4.127-1.139,10.443,1.502,18.15,11.032c11.11,13.827,4.367,28.016-0.549,38.373
			c12.094-11.91,16.743-16.489,21.826-21.494c0.312-1.096,3.157-10.028,5.479-10.776c0.511-0.165,2.029,0.827,3.883,7.242
			c13.54,46.854-16.934,58.11-18.384,58.88c-9.047,4.81-16.227,11.645-23.414,16.834c-6.692-1.561-14.164-3.296-20.282-4.722
			c-0.002-0.386-0.192-37.971-19.47-33.019c-5.59,1.436-12.418,6.815-21.023,17.788c-9.367,11.917-15.028,16.624-17.735,17.558
			c-7.348,2.538,2.864-28.089,6.435-37.533c3.637-9.64,12.089-27.561,24.28-30.8c3.663-0.973,7.75-0.674,12.314,1.629
			c12.984,6.592,23.487,14.974,27.53,13.649c4.147-1.358,2.583-6.8-1.87-15.746C80.16,21.424,82.979,7.996,89.834,6.279"/>
		<path fill="#892021" d="M89.792,6.31c4.125-1.138,10.438,1.5,18.143,11.017c11.105,13.808,4.365,27.978-0.549,38.321
			c12.089-11.893,16.735-16.467,21.816-21.464c0.312-1.095,3.155-10.014,5.476-10.762c0.511-0.165,2.028,0.825,3.883,7.232
			c13.533,46.791-16.928,58.03-18.376,58.799c-9.043,4.801-16.218,11.628-23.403,16.812c-6.689-1.558-14.157-3.292-20.273-4.716
			c-0.002-0.386-0.192-37.919-19.461-32.974c-5.587,1.434-12.413,6.806-21.015,17.764c-9.363,11.901-15.021,16.6-17.727,17.534
			c-7.346,2.535,2.862-28.05,6.433-37.481c3.636-9.626,12.083-27.522,24.269-30.757c3.662-0.972,7.747-0.674,12.309,1.626
			c12.979,6.583,23.477,14.954,27.519,13.63c4.145-1.357,2.582-6.791-1.869-15.725C80.123,21.434,82.941,8.024,89.792,6.31"/>
		<path fill="#8B1F21" d="M89.751,6.341c4.124-1.136,10.433,1.498,18.134,11.002c11.102,13.789,4.363,27.939-0.548,38.268
			c12.083-11.877,16.728-16.444,21.806-21.436c0.312-1.092,3.154-10,5.473-10.747c0.511-0.165,2.027,0.824,3.88,7.223
			c13.527,46.726-16.919,57.951-18.368,58.719c-9.037,4.795-16.211,11.612-23.393,16.788c-6.688-1.556-14.151-3.288-20.265-4.709
			c-0.002-0.385-0.19-37.867-19.452-32.929c-5.585,1.432-12.407,6.797-21.005,17.74C26.656,98.145,21,102.838,18.296,103.77
			c-7.341,2.531,2.861-28.012,6.429-37.43c3.633-9.613,12.078-27.486,24.258-30.716c3.66-0.971,7.743-0.673,12.304,1.625
			c12.973,6.574,23.466,14.933,27.506,13.612c4.142-1.354,2.58-6.782-1.869-15.703C80.085,21.444,82.903,8.053,89.751,6.341"/>
		<path fill="#8C1F21" d="M89.71,6.372c4.122-1.134,10.428,1.496,18.126,10.986c11.095,13.77,4.361,27.902-0.548,38.216
			c12.078-11.861,16.72-16.421,21.796-21.406c0.312-1.092,3.152-9.988,5.471-10.732c0.51-0.164,2.026,0.824,3.877,7.213
			c13.522,46.662-16.911,57.871-18.358,58.639c-9.033,4.789-16.204,11.596-23.383,16.765c-6.683-1.554-14.145-3.283-20.255-4.703
			c-0.001-0.384-0.191-37.816-19.443-32.884c-5.583,1.43-12.401,6.787-20.996,17.715c-9.354,11.868-15.007,16.554-17.71,17.485
			c-7.338,2.528,2.86-27.973,6.425-37.378c3.633-9.599,12.073-27.448,24.249-30.673c3.658-0.969,7.74-0.672,12.298,1.622
			C74.225,43.803,84.713,52.15,88.752,50.83c4.14-1.353,2.58-6.772-1.868-15.681C80.049,21.454,82.865,8.081,89.71,6.372"/>
		<path fill="#8E1F21" d="M89.669,6.403c4.12-1.133,10.424,1.494,18.118,10.972c11.09,13.751,4.359,27.863-0.548,38.163
			c12.072-11.844,16.713-16.399,21.787-21.376c0.312-1.09,3.151-9.972,5.468-10.717c0.51-0.164,2.026,0.822,3.876,7.202
			c13.515,46.598-16.904,57.791-18.352,58.558c-9.028,4.781-16.197,11.581-23.372,16.742c-6.68-1.551-14.138-3.278-20.246-4.696
			c-0.001-0.384-0.191-37.764-19.435-32.838c-5.58,1.428-12.396,6.777-20.986,17.69c-9.351,11.852-15.001,16.532-17.703,17.462
			c-7.333,2.524,2.858-27.935,6.423-37.328c3.631-9.586,12.068-27.409,24.237-30.631c3.656-0.968,7.736-0.671,12.292,1.62
			c12.961,6.557,23.445,14.893,27.482,13.575c4.138-1.351,2.578-6.763-1.867-15.66C80.012,21.464,82.826,8.11,89.669,6.403"/>
		<path fill="#901E21" d="M89.627,6.434c4.118-1.131,10.419,1.492,18.11,10.957c11.085,13.732,4.356,27.825-0.548,38.111
			c12.067-11.829,16.705-16.377,21.778-21.347c0.312-1.089,3.148-9.959,5.465-10.703c0.51-0.164,2.025,0.821,3.875,7.192
			c13.51,46.534-16.896,57.712-18.343,58.477c-9.023,4.772-16.189,11.565-23.361,16.72c-6.677-1.55-14.132-3.274-20.237-4.69
			c-0.002-0.383-0.191-37.711-19.426-32.793c-5.577,1.426-12.391,6.768-20.978,17.667c-9.346,11.835-14.993,16.509-17.694,17.438
			c-7.33,2.521,2.857-27.897,6.42-37.276c3.629-9.573,12.062-27.372,24.226-30.589c3.655-0.967,7.733-0.67,12.288,1.618
			c12.955,6.548,23.434,14.872,27.469,13.556c4.136-1.349,2.577-6.753-1.866-15.638C79.975,21.475,82.789,8.139,89.627,6.434"/>
		<path fill="#911E21" d="M89.586,6.465c4.116-1.13,10.415,1.49,18.102,10.941c11.08,13.713,4.354,27.786-0.547,38.058
			c12.062-11.812,16.697-16.354,21.768-21.318c0.311-1.086,3.146-9.945,5.463-10.688c0.51-0.163,2.024,0.82,3.873,7.183
			c13.505,46.47-16.888,57.632-18.335,58.397c-9.017,4.767-16.182,11.549-23.351,16.696c-6.674-1.547-14.125-3.27-20.228-4.684
			c-0.002-0.382-0.191-37.66-19.417-32.749c-5.575,1.424-12.385,6.76-20.968,17.643c-9.341,11.819-14.987,16.487-17.688,17.414
			c-7.327,2.517,2.856-27.858,6.417-37.225c3.627-9.56,12.057-27.334,24.215-30.547c3.653-0.965,7.729-0.669,12.282,1.615
			c12.95,6.541,23.424,14.854,27.457,13.539c4.134-1.347,2.576-6.744-1.865-15.617C79.938,21.485,82.75,8.168,89.586,6.465"/>
		<path fill="#931D21" d="M89.544,6.496c4.115-1.128,10.41,1.488,18.094,10.926c11.076,13.694,4.354,27.749-0.547,38.006
			c12.057-11.795,16.69-16.332,21.758-21.289c0.312-1.085,3.146-9.931,5.46-10.673c0.509-0.163,2.023,0.819,3.871,7.173
			c13.496,46.406-16.88,57.552-18.326,58.316c-9.013,4.759-16.175,11.533-23.34,16.673c-6.671-1.545-14.119-3.265-20.219-4.677
			c-0.002-0.382-0.191-37.608-19.409-32.703c-5.572,1.422-12.38,6.75-20.958,17.618c-9.338,11.803-14.979,16.463-17.679,17.39
			c-7.323,2.514,2.855-27.819,6.415-37.173c3.626-9.546,12.052-27.295,24.205-30.504c3.651-0.964,7.726-0.669,12.276,1.613
			c12.944,6.53,23.413,14.832,27.445,13.519c4.132-1.345,2.575-6.735-1.864-15.595C79.901,21.495,82.711,8.196,89.544,6.496"/>
		<path fill="#941D21" d="M89.503,6.527c4.112-1.127,10.405,1.486,18.085,10.911c11.071,13.675,4.352,27.709-0.546,37.953
			c12.051-11.779,16.683-16.309,21.748-21.259c0.311-1.083,3.145-9.917,5.458-10.658c0.509-0.163,2.021,0.817,3.869,7.163
			c13.49,46.341-16.874,57.473-18.318,58.235c-9.008,4.753-16.168,11.517-23.33,16.65c-6.668-1.543-14.113-3.26-20.209-4.67
			c-0.002-0.381-0.19-37.556-19.4-32.658c-5.569,1.42-12.374,6.741-20.949,17.594c-9.333,11.787-14.973,16.441-17.671,17.366
			c-7.319,2.509,2.854-27.781,6.412-37.122c3.625-9.534,12.046-27.259,24.193-30.463c3.649-0.962,7.722-0.667,12.271,1.611
			c12.938,6.521,23.402,14.811,27.433,13.5c4.129-1.343,2.573-6.726-1.864-15.573C79.864,21.506,82.673,8.225,89.503,6.527"/>
		<path fill="#961C21" d="M89.462,6.558c4.11-1.125,10.4,1.483,18.077,10.896c11.066,13.656,4.35,27.671-0.546,37.901
			c12.046-11.763,16.676-16.287,21.738-21.229c0.311-1.083,3.143-9.904,5.456-10.644c0.508-0.163,2.021,0.817,3.867,7.153
			c13.484,46.277-16.866,57.395-18.31,58.155c-9.003,4.745-16.16,11.501-23.319,16.627c-6.666-1.541-14.105-3.256-20.201-4.664
			c-0.002-0.381-0.19-37.504-19.391-32.613c-5.567,1.418-12.369,6.732-20.939,17.569c-9.33,11.771-14.967,16.417-17.664,17.342
			c-7.315,2.506,2.853-27.743,6.409-37.071c3.623-9.52,12.04-27.221,24.184-30.42c3.647-0.961,7.719-0.667,12.266,1.609
			C74.02,43.68,84.479,51.959,88.507,50.65c4.127-1.341,2.573-6.716-1.862-15.552C79.827,21.516,82.635,8.253,89.462,6.558"/>
		<path fill="#981C20" d="M89.42,6.589c4.108-1.124,10.396,1.481,18.069,10.881c11.061,13.638,4.347,27.633-0.546,37.848
			c12.04-11.747,16.667-16.264,21.728-21.2c0.311-1.081,3.141-9.891,5.454-10.629c0.508-0.162,2.02,0.814,3.865,7.144
			c13.479,46.212-16.857,57.313-18.301,58.074c-8.998,4.738-16.153,11.486-23.309,16.604c-6.663-1.539-14.1-3.251-20.192-4.658
			c-0.002-0.38-0.19-37.453-19.382-32.567c-5.563,1.417-12.362,6.722-20.93,17.545c-9.325,11.754-14.959,16.395-17.655,17.317
			c-7.312,2.502,2.852-27.704,6.406-37.02c3.621-9.507,12.035-27.183,24.172-30.378c3.646-0.96,7.715-0.666,12.259,1.606
			C73.984,43.66,84.439,51.928,88.466,50.62c4.125-1.339,2.571-6.707-1.862-15.53C79.79,21.527,82.597,8.282,89.42,6.589"/>
		<path fill="#991B20" d="M89.379,6.621C93.486,5.498,99.771,8.1,107.44,17.486c11.055,13.619,4.345,27.595-0.546,37.796
			c12.035-11.731,16.66-16.242,21.718-21.171c0.311-1.08,3.14-9.877,5.451-10.614c0.508-0.162,2.019,0.814,3.863,7.134
			c13.473,46.148-16.85,57.234-18.292,57.994c-8.992,4.733-16.146,11.469-23.299,16.581c-6.659-1.537-14.094-3.247-20.183-4.651
			c-0.002-0.38-0.19-37.401-19.374-32.522c-5.562,1.415-12.357,6.713-20.92,17.521c-9.321,11.738-14.953,16.373-17.648,17.294
			c-7.308,2.499,2.851-27.666,6.403-36.968c3.62-9.494,12.03-27.146,24.162-30.336c3.645-0.958,7.712-0.665,12.254,1.604
			C73.95,43.64,84.4,51.896,88.425,50.59c4.123-1.338,2.57-6.697-1.861-15.509C79.752,21.537,82.559,8.311,89.379,6.621"/>
		<path fill="#9B1B20" d="M89.338,6.651c4.104-1.121,10.386,1.478,18.053,10.851c11.051,13.6,4.343,27.557-0.546,37.743
			c12.029-11.714,16.653-16.219,21.709-21.142c0.312-1.078,3.139-9.862,5.449-10.599c0.508-0.162,2.018,0.812,3.862,7.123
			c13.468,46.083-16.842,57.155-18.285,57.913c-8.988,4.724-16.139,11.453-23.289,16.558c-6.656-1.535-14.087-3.243-20.173-4.645
			c-0.002-0.379-0.19-37.348-19.365-32.477c-5.559,1.412-12.352,6.704-20.911,17.497c-9.316,11.721-14.946,16.35-17.64,17.27
			c-7.304,2.496,2.849-27.628,6.4-36.917c3.618-9.48,12.025-27.105,24.15-30.293c3.643-0.958,7.709-0.664,12.249,1.602
			C73.916,43.619,84.36,51.864,88.384,50.56c4.121-1.335,2.569-6.688-1.86-15.487C79.716,21.547,82.52,8.34,89.338,6.651"/>
		<path fill="#9C1A20" d="M89.296,6.683c4.103-1.12,10.382,1.475,18.045,10.835c11.046,13.581,4.342,27.519-0.545,37.691
			c12.023-11.698,16.645-16.197,21.699-21.112c0.31-1.076,3.137-9.85,5.446-10.585c0.507-0.162,2.016,0.812,3.86,7.114
			c13.462,46.02-16.834,57.074-18.276,57.832c-8.982,4.718-16.132,11.438-23.278,16.535c-6.653-1.533-14.081-3.238-20.165-4.639
			c-0.002-0.378-0.189-37.295-19.356-32.432c-5.557,1.41-12.347,6.694-20.902,17.472c-9.313,11.705-14.939,16.326-17.632,17.246
			c-7.3,2.493,2.848-27.589,6.397-36.865c3.617-9.468,12.019-27.069,24.14-30.252c3.642-0.956,7.706-0.663,12.243,1.6
			c12.909,6.476,23.35,14.709,27.371,13.407c4.119-1.334,2.568-6.679-1.859-15.466C79.679,21.557,82.482,8.369,89.296,6.683"/>
		<path fill="#9E1A20" d="M89.255,6.713c4.101-1.118,10.377,1.473,18.037,10.821c11.041,13.562,4.339,27.479-0.545,37.638
			c12.019-11.681,16.638-16.174,21.689-21.083c0.311-1.075,3.136-9.835,5.444-10.57c0.507-0.161,2.016,0.811,3.858,7.104
			c13.457,45.955-16.828,56.995-18.271,57.752c-8.977,4.711-16.124,11.422-23.267,16.512c-6.65-1.53-14.075-3.233-20.156-4.632
			c-0.002-0.378-0.188-37.244-19.348-32.386c-5.554,1.408-12.34,6.685-20.893,17.447c-9.309,11.689-14.933,16.304-17.624,17.222
			c-7.297,2.489,2.847-27.551,6.395-36.814c3.615-9.454,12.014-27.03,24.129-30.209c3.64-0.955,7.702-0.662,12.238,1.598
			c12.905,6.465,23.34,14.688,27.36,13.387c4.117-1.332,2.567-6.67-1.857-15.444C79.642,21.567,82.443,8.397,89.255,6.713"/>
		<path fill="#9F1920" d="M89.214,6.744c4.099-1.116,10.372,1.472,18.029,10.806c11.035,13.543,4.337,27.441-0.545,37.586
			c12.013-11.666,16.63-16.152,21.68-21.054c0.31-1.073,3.134-9.82,5.441-10.555c0.507-0.162,2.015,0.81,3.855,7.093
			c13.453,45.89-16.819,56.916-18.261,57.671c-8.972,4.705-16.117,11.406-23.257,16.489c-6.647-1.528-14.068-3.229-20.146-4.625
			c-0.002-0.377-0.188-37.192-19.339-32.341C51.12,69.22,44.337,74.49,35.789,85.237c-9.304,11.673-14.925,16.281-17.616,17.198
			c-7.293,2.485,2.845-27.512,6.392-36.763c3.613-9.44,12.008-26.992,24.118-30.167c3.638-0.954,7.698-0.661,12.232,1.595
			c12.896,6.458,23.327,14.668,27.346,13.369c4.115-1.33,2.566-6.66-1.856-15.423C79.604,21.578,82.406,8.426,89.214,6.744"/>
		<path fill="#A11920" d="M89.172,6.775c4.098-1.114,10.368,1.47,18.021,10.79c11.031,13.524,4.335,27.403-0.544,37.533
			c12.008-11.649,16.623-16.129,21.669-21.024c0.311-1.071,3.132-9.808,5.439-10.541c0.506-0.161,2.014,0.809,3.854,7.084
			c13.443,45.827-16.812,56.836-18.252,57.591c-8.967,4.697-16.11,11.39-23.247,16.466c-6.645-1.526-14.062-3.225-20.137-4.619
			c-0.001-0.377-0.188-37.14-19.33-32.296c-5.549,1.404-12.33,6.667-20.874,17.399c-9.3,11.656-14.918,16.258-17.608,17.174
			c-7.289,2.481,2.844-27.475,6.389-36.712c3.612-9.428,12.003-26.956,24.107-30.125c3.637-0.953,7.695-0.66,12.227,1.593
			c12.893,6.449,23.317,14.648,27.334,13.35c4.112-1.328,2.564-6.65-1.856-15.401C79.568,21.588,82.367,8.454,89.172,6.775"/>
		<path fill="#A3181F" d="M89.131,6.806c4.096-1.113,10.364,1.467,18.013,10.776c11.025,13.505,4.333,27.364-0.545,37.48
			c12.002-11.633,16.615-16.106,21.66-20.995c0.311-1.069,3.131-9.794,5.438-10.525c0.506-0.161,2.013,0.807,3.854,7.074
			c13.438,45.763-16.804,56.756-18.245,57.51c-8.963,4.689-16.103,11.374-23.235,16.443c-6.642-1.524-14.057-3.22-20.129-4.613
			c-0.001-0.376-0.188-37.087-19.321-32.251c-5.546,1.402-12.324,6.657-20.864,17.375c-9.296,11.64-14.911,16.236-17.6,17.15
			c-7.285,2.478,2.842-27.437,6.386-36.661c3.61-9.414,11.998-26.917,24.096-30.083c3.635-0.951,7.691-0.659,12.221,1.591
			c12.885,6.439,23.306,14.626,27.321,13.331c4.111-1.326,2.563-6.642-1.854-15.379C79.531,21.599,82.329,8.483,89.131,6.806"/>
		<path fill="#A4181F" d="M89.089,6.838c4.094-1.112,10.358,1.465,18.005,10.76c11.021,13.486,4.331,27.326-0.544,37.428
			c11.997-11.617,16.608-16.084,21.65-20.965c0.31-1.069,3.129-9.781,5.434-10.511c0.505-0.16,2.013,0.806,3.853,7.064
			c13.433,45.698-16.796,56.677-18.236,57.429c-8.958,4.682-16.095,11.358-23.226,16.42c-6.638-1.521-14.049-3.215-20.119-4.606
			c-0.002-0.375-0.189-37.037-19.312-32.206c-5.544,1.4-12.318,6.648-20.854,17.35c-9.292,11.624-14.905,16.212-17.592,17.125
			c-7.282,2.475,2.841-27.397,6.383-36.608c3.608-9.401,11.993-26.88,24.086-30.041c3.633-0.95,7.688-0.658,12.216,1.589
			C73.71,43.497,84.126,51.672,88.14,50.378c4.108-1.324,2.562-6.632-1.855-15.357C79.494,21.609,82.291,8.512,89.089,6.838"/>
		<path fill="#A6171F" d="M89.048,6.869c4.092-1.11,10.354,1.463,17.997,10.745c11.016,13.467,4.33,27.288-0.544,37.375
			c11.992-11.602,16.601-16.062,21.641-20.937c0.31-1.067,3.127-9.77,5.432-10.497c0.506-0.16,2.012,0.805,3.85,7.055
			c13.426,45.634-16.789,56.597-18.227,57.349c-8.953,4.677-16.089,11.343-23.216,16.397c-6.635-1.52-14.043-3.211-20.11-4.6
			c-0.002-0.375-0.188-36.985-19.305-32.161c-5.541,1.398-12.312,6.639-20.845,17.326c-9.288,11.607-14.897,16.189-17.585,17.102
			c-7.276,2.471,2.84-27.358,6.38-36.558c3.607-9.388,11.988-26.843,24.075-29.998c3.632-0.948,7.686-0.657,12.21,1.586
			c12.874,6.422,23.285,14.587,27.298,13.294c4.105-1.322,2.561-6.623-1.854-15.336C79.458,21.619,82.252,8.54,89.048,6.869"/>
		<path fill="#A7161F" d="M89.006,6.899c4.091-1.108,10.35,1.461,17.989,10.73c11.01,13.449,4.327,27.25-0.544,37.323
			c11.986-11.584,16.593-16.039,21.63-20.907c0.31-1.065,3.125-9.754,5.429-10.481c0.505-0.16,2.01,0.804,3.848,7.045
			c13.421,45.569-16.78,56.518-18.219,57.268c-8.947,4.669-16.081,11.327-23.205,16.374c-6.632-1.518-14.036-3.207-20.101-4.594
			c-0.002-0.375-0.188-36.933-19.295-32.116C51,68.938,44.232,74.172,35.703,84.844c-9.283,11.591-14.891,16.167-17.576,17.078
			c-7.274,2.468,2.838-27.32,6.377-36.506c3.605-9.375,11.981-26.806,24.064-29.957c3.629-0.946,7.681-0.656,12.204,1.584
			C73.64,43.456,84.046,51.61,88.057,50.319c4.104-1.32,2.561-6.614-1.853-15.315C79.42,21.629,82.213,8.569,89.006,6.899"/>
		<path fill="#A9161F" d="M88.966,6.931c4.088-1.107,10.344,1.459,17.98,10.715c11.006,13.43,4.326,27.211-0.543,37.271
			c11.98-11.567,16.585-16.016,21.621-20.877c0.309-1.064,3.124-9.74,5.426-10.467c0.505-0.159,2.01,0.803,3.847,7.035
			c13.413,45.505-16.773,56.438-18.211,57.188c-8.942,4.663-16.074,11.311-23.194,16.351c-6.629-1.516-14.03-3.202-20.093-4.587
			c-0.002-0.374-0.188-36.879-19.286-32.07c-5.537,1.394-12.302,6.62-20.827,17.277c-9.279,11.574-14.884,16.144-17.568,17.054
			c-7.271,2.464,2.837-27.282,6.374-36.455c3.604-9.361,11.977-26.767,24.054-29.914c3.628-0.946,7.677-0.655,12.199,1.582
			c12.861,6.403,23.263,14.545,27.272,13.257c4.102-1.318,2.559-6.604-1.853-15.293C79.383,21.64,82.175,8.598,88.966,6.931"/>
		<path fill="#AA151F" d="M88.924,6.961c4.086-1.105,10.34,1.458,17.973,10.7c11,13.411,4.323,27.173-0.544,37.219
			c11.976-11.552,16.578-15.994,21.611-20.848c0.309-1.062,3.123-9.726,5.424-10.452c0.505-0.159,2.008,0.801,3.845,7.024
			c13.408,45.441-16.765,56.357-18.202,57.106c-8.938,4.655-16.066,11.295-23.185,16.328c-6.626-1.513-14.023-3.197-20.083-4.58
			c-0.002-0.374-0.188-36.828-19.277-32.025c-5.534,1.392-12.296,6.611-20.817,17.253c-9.275,11.559-14.878,16.122-17.561,17.03
			c-7.267,2.461,2.835-27.244,6.372-36.404c3.602-9.348,11.97-26.729,24.042-29.872c3.626-0.944,7.674-0.655,12.193,1.58
			c12.856,6.395,23.253,14.525,27.26,13.238c4.1-1.317,2.558-6.595-1.851-15.271C79.346,21.65,82.137,8.627,88.924,6.961"/>
		<path fill="#AC151F" d="M88.883,6.992c4.085-1.104,10.335,1.456,17.964,10.686c10.996,13.392,4.321,27.134-0.543,37.165
			c11.97-11.535,16.57-15.971,21.603-20.818c0.309-1.061,3.121-9.712,5.421-10.437c0.504-0.159,2.007,0.801,3.842,7.015
			c13.399,45.376-16.757,56.278-18.194,57.025c-8.933,4.646-16.06,11.279-23.174,16.306c-6.622-1.512-14.017-3.193-20.074-4.574
			c-0.002-0.373-0.188-36.776-19.269-31.98c-5.532,1.391-12.291,6.602-20.808,17.229c-9.271,11.542-14.871,16.098-17.553,17.006
			c-7.263,2.458,2.835-27.205,6.369-36.354c3.601-9.335,11.965-26.69,24.032-29.83c3.625-0.943,7.67-0.653,12.188,1.578
			c12.851,6.385,23.242,14.504,27.248,13.219c4.098-1.314,2.556-6.585-1.851-15.25C79.309,21.66,82.099,8.655,88.883,6.992"/>
		<path fill="#AD141E" d="M88.841,7.023c4.083-1.102,10.331,1.453,17.957,10.67c10.991,13.373,4.319,27.097-0.543,37.113
			c11.964-11.52,16.563-15.949,21.591-20.789c0.31-1.06,3.12-9.7,5.419-10.423c0.504-0.159,2.006,0.8,3.84,7.005
			c13.394,45.312-16.75,56.198-18.187,56.945c-8.928,4.64-16.052,11.264-23.164,16.282c-6.62-1.509-14.011-3.188-20.065-4.567
			c-0.002-0.373-0.187-36.724-19.26-31.935c-5.529,1.389-12.285,6.592-20.799,17.205c-9.267,11.525-14.864,16.076-17.545,16.981
			c-7.259,2.454,2.833-27.167,6.366-36.302c3.599-9.322,11.96-26.653,24.021-29.787c3.624-0.941,7.667-0.653,12.184,1.575
			c12.844,6.376,23.23,14.484,27.235,13.201c4.095-1.313,2.555-6.576-1.85-15.229C79.272,21.67,82.061,8.684,88.841,7.023"/>
		<path fill="#AE131E" d="M88.8,7.055c4.081-1.101,10.326,1.451,17.948,10.655c10.985,13.354,4.317,27.058-0.543,37.06
			c11.959-11.502,16.556-15.926,21.582-20.76c0.309-1.058,3.118-9.684,5.417-10.407c0.504-0.159,2.005,0.798,3.839,6.995
			c13.388,45.248-16.742,56.119-18.178,56.864c-8.923,4.633-16.045,11.247-23.153,16.259c-6.617-1.506-14.004-3.184-20.056-4.561
			c-0.002-0.372-0.188-36.672-19.252-31.89c-5.526,1.386-12.279,6.583-20.789,17.181c-9.263,11.509-14.857,16.053-17.537,16.958
			c-7.255,2.45,2.833-27.129,6.363-36.25c3.598-9.309,11.954-26.616,24.01-29.746c3.622-0.94,7.664-0.651,12.177,1.573
			C73.467,43.354,83.85,51.45,87.852,50.168c4.093-1.311,2.554-6.566-1.849-15.207C79.235,21.681,82.022,8.712,88.8,7.055"/>
		<path fill="#B0131E" d="M88.759,7.086c4.08-1.1,10.321,1.449,17.94,10.64c10.98,13.335,4.314,27.02-0.543,37.008
			c11.954-11.486,16.549-15.903,21.573-20.73c0.308-1.057,3.116-9.671,5.414-10.393c0.503-0.158,2.005,0.797,3.837,6.985
			c13.383,45.186-16.734,56.04-18.169,56.785c-8.917,4.626-16.038,11.231-23.143,16.236c-6.614-1.504-13.999-3.18-20.047-4.555
			c-0.002-0.371-0.186-36.62-19.243-31.844c-5.524,1.384-12.274,6.574-20.78,17.156c-9.258,11.493-14.85,16.03-17.528,16.934
			c-7.252,2.446,2.832-27.09,6.359-36.199c3.596-9.295,11.95-26.578,24-29.703c3.62-0.939,7.66-0.651,12.171,1.571
			C73.433,43.335,83.81,51.42,87.811,50.14c4.091-1.309,2.553-6.558-1.849-15.186C79.197,21.691,81.984,8.741,88.759,7.086"/>
		<path fill="#B1121E" d="M88.717,7.117c4.078-1.098,10.316,1.447,17.933,10.625c10.976,13.316,4.312,26.981-0.543,36.956
			c11.948-11.47,16.541-15.881,21.562-20.701c0.308-1.055,3.114-9.659,5.412-10.378c0.503-0.158,2.004,0.797,3.835,6.976
			c13.376,45.12-16.727,55.96-18.161,56.704c-8.913,4.619-16.03,11.215-23.132,16.213c-6.61-1.503-13.992-3.176-20.038-4.549
			c-0.002-0.371-0.186-36.568-19.234-31.799c-5.521,1.382-12.268,6.564-20.77,17.132C26.327,95.771,20.738,100.3,18.06,101.203
			c-7.248,2.443,2.83-27.051,6.357-36.147c3.595-9.282,11.944-26.54,23.989-29.661c3.618-0.938,7.656-0.65,12.166,1.568
			c12.827,6.35,23.199,14.424,27.198,13.145c4.089-1.307,2.552-6.548-1.848-15.164C79.161,21.702,81.946,8.771,88.717,7.117"/>
		<path fill="#B3121E" d="M88.676,7.147c4.075-1.096,10.312,1.445,17.924,10.609c10.971,13.297,4.311,26.943-0.542,36.903
			c11.943-11.454,16.533-15.858,21.553-20.672c0.308-1.053,3.113-9.645,5.409-10.363c0.503-0.158,2.002,0.795,3.834,6.965
			c13.371,45.055-16.719,55.88-18.153,56.624c-8.907,4.614-16.023,11.199-23.121,16.189c-6.608-1.5-13.986-3.17-20.029-4.542
			c-0.002-0.37-0.187-36.517-19.226-31.754c-5.52,1.381-12.263,6.556-20.761,17.107c-9.25,11.46-14.836,15.984-17.513,16.886
			c-7.245,2.44,2.829-27.013,6.354-36.096c3.593-9.269,11.938-26.503,23.978-29.619c3.617-0.936,7.653-0.649,12.16,1.566
			c12.821,6.341,23.189,14.403,27.187,13.126c4.087-1.306,2.551-6.539-1.847-15.142C79.123,21.712,81.907,8.799,88.676,7.147"/>
		<path fill="#B4111E" d="M88.634,7.179c4.074-1.095,10.308,1.443,17.916,10.594c10.966,13.278,4.311,26.904-0.542,36.851
			c11.938-11.438,16.526-15.836,21.543-20.642c0.308-1.052,3.112-9.63,5.407-10.349c0.503-0.158,2.001,0.794,3.832,6.955
			c13.362,44.992-16.712,55.801-18.145,56.543c-8.901,4.607-16.017,11.184-23.111,16.167c-6.604-1.498-13.979-3.167-20.021-4.536
			c-0.003-0.369-0.186-36.464-19.217-31.708c-5.516,1.378-12.256,6.546-20.751,17.083c-9.246,11.444-14.83,15.961-17.505,16.862
			c-7.241,2.436,2.828-26.975,6.351-36.045c3.592-9.256,11.933-26.464,23.967-29.576c3.616-0.935,7.65-0.648,12.155,1.564
			c12.815,6.332,23.178,14.383,27.174,13.107c4.084-1.303,2.55-6.53-1.846-15.121C79.086,21.722,81.869,8.827,88.634,7.179"/>
		<path fill="#B6101D" d="M88.593,7.21c4.072-1.094,10.302,1.44,17.908,10.579c10.961,13.259,4.307,26.866-0.542,36.798
			c11.932-11.421,16.519-15.813,21.533-20.612c0.308-1.051,3.109-9.619,5.404-10.335c0.502-0.157,2,0.793,3.83,6.946
			c13.357,44.927-16.703,55.721-18.136,56.462c-8.896,4.601-16.01,11.167-23.101,16.144c-6.603-1.496-13.973-3.162-20.011-4.529
			c-0.001-0.369-0.185-36.413-19.208-31.664c-5.513,1.376-12.251,6.537-20.742,17.059c-9.242,11.428-14.823,15.938-17.498,16.837
			c-7.237,2.433,2.825-26.936,6.348-35.993c3.59-9.243,11.927-26.426,23.957-29.534c3.613-0.934,7.646-0.647,12.149,1.562
			c12.81,6.322,23.167,14.361,27.161,13.088c4.083-1.301,2.549-6.52-1.845-15.099C79.049,21.732,81.831,8.855,88.593,7.21"/>
		<path fill="#B70F1D" d="M88.552,7.241c4.07-1.092,10.297,1.438,17.899,10.562c10.956,13.24,4.306,26.828-0.541,36.746
			c11.926-11.405,16.511-15.791,21.523-20.583c0.308-1.049,3.108-9.603,5.402-10.319c0.502-0.157,2,0.792,3.829,6.936
			c13.354,44.862-16.696,55.642-18.128,56.381c-8.893,4.592-16.002,11.151-23.091,16.121c-6.599-1.494-13.966-3.157-20.001-4.523
			c-0.002-0.368-0.188-36.362-19.199-31.619c-5.511,1.375-12.246,6.528-20.733,17.035c-9.237,11.412-14.815,15.916-17.49,16.813
			c-7.234,2.428,2.825-26.898,6.346-35.942c3.588-9.229,11.923-26.388,23.945-29.492c3.612-0.933,7.643-0.646,12.144,1.56
			c12.805,6.313,23.157,14.341,27.15,13.07c4.081-1.3,2.547-6.51-1.844-15.078C79.013,21.743,81.792,8.885,88.552,7.241"/>
		<path fill="#B80E1D" d="M88.511,7.271c4.068-1.09,10.293,1.438,17.893,10.549c10.951,13.222,4.303,26.79-0.542,36.693
			c11.921-11.389,16.504-15.769,21.514-20.554c0.308-1.048,3.106-9.59,5.399-10.305c0.502-0.157,1.999,0.79,3.827,6.926
			c13.348,44.798-16.688,55.562-18.12,56.301c-8.887,4.586-15.994,11.136-23.08,16.098c-6.595-1.491-13.96-3.153-19.992-4.516
			c-0.002-0.368-0.187-36.309-19.191-31.573c-5.508,1.373-12.24,6.518-20.723,17.01c-9.233,11.396-14.81,15.893-17.482,16.79
			c-7.229,2.426,2.824-26.86,6.343-35.891c3.587-9.216,11.917-26.352,23.935-29.451c3.611-0.931,7.64-0.645,12.139,1.558
			c12.798,6.305,23.146,14.321,27.137,13.052c4.078-1.298,2.547-6.501-1.843-15.056C78.976,21.753,81.754,8.914,88.511,7.271"/>
		<path fill="#BA0E1D" d="M88.469,7.303c4.066-1.088,10.289,1.436,17.883,10.534c10.946,13.203,4.301,26.751-0.541,36.641
			c11.916-11.373,16.496-15.746,21.503-20.525c0.307-1.045,3.106-9.576,5.397-10.29c0.501-0.156,1.998,0.79,3.825,6.917
			c13.342,44.733-16.68,55.482-18.111,56.22c-8.882,4.579-15.988,11.12-23.069,16.075c-6.593-1.49-13.954-3.149-19.984-4.51
			c-0.002-0.367-0.185-36.257-19.182-31.528c-5.506,1.371-12.235,6.509-20.714,16.985c-9.229,11.379-14.803,15.871-17.474,16.766
			c-7.226,2.422,2.822-26.821,6.34-35.839c3.585-9.203,11.911-26.313,23.923-29.408c3.609-0.93,7.635-0.645,12.133,1.556
			c12.792,6.295,23.135,14.301,27.125,13.032c4.076-1.296,2.545-6.492-1.843-15.035C78.939,21.763,81.716,8.942,88.469,7.303"/>
		<path fill="#BB0D1D" d="M88.428,7.334c4.065-1.087,10.284,1.433,17.875,10.519c10.941,13.184,4.299,26.713-0.541,36.588
			c11.911-11.356,16.489-15.724,21.494-20.495c0.308-1.044,3.104-9.562,5.395-10.275c0.501-0.156,1.997,0.789,3.823,6.906
			c13.336,44.67-16.672,55.403-18.103,56.14c-8.877,4.571-15.98,11.104-23.06,16.052c-6.589-1.487-13.947-3.144-19.975-4.503
			c-0.002-0.367-0.186-36.206-19.173-31.483c-5.504,1.369-12.229,6.5-20.705,16.962c-9.225,11.362-14.794,15.847-17.466,16.741
			c-7.223,2.418,2.821-26.782,6.337-35.788c3.583-9.189,11.906-26.274,23.913-29.365c3.607-0.929,7.632-0.644,12.127,1.553
			c12.787,6.287,23.125,14.28,27.113,13.014c4.074-1.294,2.543-6.482-1.842-15.013C78.902,21.773,81.678,8.971,88.428,7.334"/>
		<path fill="#BD0C1C" d="M88.386,7.365c4.063-1.085,10.279,1.431,17.868,10.504c10.936,13.165,4.297,26.674-0.541,36.536
			c11.905-11.34,16.48-15.701,21.484-20.466c0.307-1.042,3.103-9.548,5.393-10.26c0.5-0.156,1.996,0.787,3.821,6.896
			c13.328,44.605-16.665,55.323-18.096,56.059c-8.873,4.563-15.973,11.088-23.048,16.029c-6.586-1.485-13.941-3.139-19.965-4.497
			C75.3,97.8,75.117,62.013,56.137,66.728c-5.501,1.367-12.224,6.491-20.696,16.937c-9.22,11.347-14.788,15.825-17.458,16.718
			c-7.218,2.415,2.82-26.744,6.334-35.736c3.582-9.177,11.9-26.238,23.902-29.324c3.604-0.927,7.628-0.643,12.122,1.551
			c12.78,6.278,23.114,14.26,27.101,12.995c4.071-1.292,2.542-6.473-1.841-14.992C78.865,21.784,81.639,9,88.386,7.365"/>
		<path fill="#BE0B1C" d="M88.345,7.396c4.062-1.084,10.274,1.428,17.859,10.489c10.931,13.146,4.295,26.636-0.54,36.482
			c11.899-11.323,16.473-15.679,21.475-20.437c0.307-1.041,3.102-9.533,5.391-10.245c0.5-0.156,1.995,0.786,3.818,6.887
			c13.322,44.541-16.657,55.243-18.087,55.978c-8.867,4.558-15.966,11.072-23.038,16.006c-6.583-1.483-13.935-3.135-19.957-4.49
			c-0.002-0.365-0.185-36.101-19.156-31.393c-5.498,1.365-12.218,6.481-20.687,16.913c-9.217,11.33-14.782,15.802-17.451,16.694
			c-7.215,2.411,2.819-26.706,6.332-35.687c3.58-9.163,11.896-26.2,23.892-29.282c3.604-0.926,7.625-0.642,12.117,1.549
			c12.774,6.269,23.103,14.24,27.088,12.977c4.068-1.291,2.542-6.464-1.84-14.97C78.828,21.794,81.601,9.028,88.345,7.396"/>
		<path fill="#BF0A1C" d="M88.304,7.427c4.06-1.082,10.271,1.427,17.852,10.474c10.926,13.126,4.293,26.598-0.541,36.431
			c11.895-11.308,16.467-15.656,21.465-20.407c0.307-1.04,3.1-9.519,5.388-10.23c0.5-0.156,1.994,0.785,3.817,6.876
			c13.315,44.477-16.649,55.164-18.078,55.896c-8.863,4.549-15.958,11.057-23.028,15.983c-6.58-1.481-13.928-3.131-19.947-4.484
			c-0.002-0.365-0.185-36.049-19.146-31.347c-5.496,1.363-12.213,6.472-20.677,16.888c-9.212,11.313-14.775,15.779-17.442,16.67
			c-7.211,2.408,2.817-26.667,6.329-35.634c3.579-9.15,11.89-26.163,23.88-29.24c3.603-0.924,7.621-0.641,12.11,1.547
			c12.77,6.259,23.093,14.219,27.076,12.958c4.066-1.288,2.54-6.455-1.839-14.948C78.791,21.805,81.563,9.057,88.304,7.427"/>
		<path fill="#C1091C" d="M88.262,7.458c4.058-1.081,10.266,1.425,17.843,10.459c10.921,13.108,4.292,26.56-0.54,36.377
			c11.889-11.291,16.459-15.633,21.456-20.378c0.306-1.037,3.098-9.506,5.385-10.216c0.5-0.155,1.993,0.784,3.814,6.867
			c13.311,44.413-16.642,55.084-18.068,55.817c-8.857,4.543-15.952,11.041-23.019,15.96c-6.577-1.479-13.922-3.126-19.938-4.478
			c-0.002-0.364-0.185-35.996-19.138-31.302c-5.494,1.361-12.207,6.463-20.667,16.864c-9.208,11.297-14.768,15.755-17.435,16.646
			c-7.207,2.404,2.816-26.629,6.326-35.583c3.578-9.137,11.884-26.125,23.87-29.197c3.601-0.923,7.618-0.64,12.104,1.544
			c12.763,6.25,23.082,14.198,27.063,12.939c4.064-1.286,2.54-6.445-1.838-14.927C78.754,21.815,81.524,9.085,88.262,7.458"/>
		<path fill="#C2081C" d="M88.221,7.489c4.057-1.08,10.26,1.422,17.835,10.443c10.916,13.089,4.289,26.521-0.54,36.326
			c11.884-11.275,16.452-15.611,21.446-20.349c0.306-1.036,3.097-9.492,5.382-10.201c0.5-0.155,1.992,0.783,3.814,6.857
			c13.306,44.347-16.634,55.004-18.062,55.736c-8.852,4.537-15.943,11.024-23.007,15.937c-6.574-1.477-13.916-3.122-19.929-4.471
			c-0.002-0.363-0.184-35.944-19.129-31.257c-5.491,1.359-12.202,6.454-20.658,16.84c-9.204,11.281-14.761,15.733-17.427,16.621
			c-7.204,2.4,2.814-26.59,6.323-35.531c3.576-9.124,11.879-26.087,23.859-29.155c3.598-0.921,7.614-0.639,12.1,1.542
			c12.757,6.241,23.071,14.178,27.051,12.92c4.062-1.284,2.539-6.436-1.837-14.905C78.717,21.825,81.486,9.114,88.221,7.489"/>
		<path fill="#C3071B" d="M88.18,7.52c4.054-1.078,10.256,1.42,17.827,10.428c10.911,13.07,4.288,26.482-0.539,36.272
			c11.878-11.259,16.443-15.588,21.437-20.319c0.306-1.035,3.095-9.479,5.38-10.186c0.5-0.155,1.991,0.781,3.812,6.847
			c13.299,44.283-16.626,54.925-18.053,55.656c-8.847,4.531-15.938,11.008-22.997,15.914c-6.571-1.475-13.91-3.117-19.921-4.465
			c-0.002-0.363-0.184-35.894-19.121-31.211c-5.489,1.357-12.196,6.444-20.648,16.815c-9.2,11.265-14.754,15.71-17.419,16.598
			c-7.199,2.397,2.814-26.552,6.32-35.48c3.574-9.11,11.875-26.05,23.849-29.113c3.597-0.92,7.61-0.638,12.094,1.54
			c12.752,6.233,23.061,14.158,27.04,12.902c4.061-1.282,2.537-6.426-1.837-14.883C78.68,21.835,81.448,9.143,88.18,7.52"/>
		<path fill="#C5061B" d="M88.138,7.551c4.052-1.076,10.251,1.418,17.819,10.413c10.906,13.051,4.285,26.444-0.54,36.221
			c11.873-11.242,16.437-15.566,21.426-20.29c0.306-1.034,3.093-9.465,5.378-10.172c0.499-0.154,1.99,0.781,3.812,6.837
			c13.292,44.219-16.619,54.845-18.046,55.575c-8.842,4.523-15.931,10.993-22.986,15.891c-6.568-1.473-13.903-3.113-19.912-4.459
			c-0.001-0.362-0.183-35.841-19.112-31.166c-5.485,1.355-12.19,6.435-20.639,16.791C26.143,94.44,20.591,98.88,17.928,99.766
			c-7.196,2.394,2.812-26.514,6.316-35.429c3.573-9.097,11.869-26.011,23.837-29.07c3.596-0.919,7.608-0.638,12.089,1.537
			c12.746,6.224,23.05,14.138,27.026,12.883c4.059-1.28,2.536-6.417-1.835-14.862C78.643,21.846,81.41,9.171,88.138,7.551"/>
		<path fill="#C6051B" d="M88.097,7.582c4.05-1.075,10.246,1.417,17.812,10.398c10.901,13.032,4.284,26.407-0.539,36.168
			c11.868-11.226,16.429-15.543,21.416-20.26c0.306-1.032,3.091-9.452,5.375-10.157c0.499-0.154,1.989,0.779,3.809,6.827
			c13.287,44.155-16.611,54.766-18.037,55.495c-8.837,4.516-15.923,10.978-22.976,15.868c-6.565-1.47-13.896-3.108-19.902-4.452
			c-0.002-0.362-0.183-35.789-19.103-31.121c-5.483,1.353-12.187,6.425-20.63,16.767C26.13,94.347,20.581,98.78,17.918,99.664
			c-7.193,2.389,2.811-26.476,6.314-35.377c3.571-9.083,11.863-25.974,23.827-29.029c3.594-0.917,7.604-0.636,12.083,1.536
			c12.74,6.215,23.039,14.117,27.014,12.864c4.057-1.279,2.535-6.408-1.835-14.84C78.605,21.856,81.371,9.2,88.097,7.582"/>
		<path fill="#C7051B" d="M88.056,7.613c4.048-1.073,10.242,1.415,17.802,10.383c10.896,13.014,4.282,26.369-0.539,36.116
			c11.861-11.209,16.421-15.521,21.406-20.231c0.306-1.031,3.091-9.438,5.373-10.143c0.499-0.154,1.988,0.778,3.808,6.817
			c13.278,44.091-16.604,54.687-18.028,55.414c-8.831,4.511-15.916,10.96-22.966,15.844c-6.562-1.468-13.89-3.104-19.894-4.445
			c-0.002-0.362-0.183-35.737-19.094-31.076c-5.479,1.351-12.179,6.416-20.62,16.742C26.116,94.25,20.569,98.677,17.909,99.561
			c-7.188,2.387,2.81-26.437,6.311-35.326c3.57-9.071,11.857-25.936,23.815-28.986c3.593-0.917,7.601-0.636,12.078,1.533
			c12.733,6.206,23.029,14.097,27.002,12.846c4.055-1.277,2.534-6.398-1.833-14.819C78.568,21.866,81.333,9.229,88.056,7.613"/>
		<path fill="#C9041B" d="M88.014,7.644c4.046-1.072,10.237,1.413,17.794,10.368c10.891,12.995,4.28,26.33-0.538,36.063
			c11.856-11.193,16.414-15.498,21.396-20.202c0.306-1.028,3.089-9.424,5.371-10.127c0.498-0.154,1.987,0.777,3.806,6.808
			c13.273,44.026-16.596,54.606-18.021,55.333c-8.826,4.504-15.909,10.944-22.956,15.821c-6.559-1.466-13.884-3.099-19.884-4.439
			c-0.002-0.361-0.183-35.685-19.086-31.031c-5.478,1.349-12.174,6.407-20.61,16.718c-9.184,11.2-14.728,15.62-17.388,16.502
			c-7.185,2.383,2.809-26.398,6.309-35.275c3.567-9.058,11.852-25.898,23.805-28.944c3.591-0.915,7.597-0.634,12.072,1.531
			c12.729,6.196,23.018,14.076,26.99,12.827c4.053-1.274,2.532-6.389-1.833-14.797C78.531,21.877,81.295,9.257,88.014,7.644"/>
		<path fill="#CA031A" d="M87.973,7.675c4.044-1.07,10.232,1.411,17.787,10.353c10.886,12.975,4.277,26.291-0.538,36.011
			c11.853-11.177,16.406-15.476,21.387-20.172c0.305-1.027,3.087-9.412,5.368-10.113c0.499-0.153,1.986,0.776,3.804,6.798
			c13.268,43.962-16.588,54.527-18.013,55.252c-8.822,4.494-15.901,10.929-22.944,15.799c-6.557-1.464-13.877-3.095-19.875-4.433
			c-0.002-0.36-0.183-35.633-19.077-30.986c-5.476,1.347-12.168,6.398-20.602,16.694c-9.18,11.183-14.721,15.596-17.38,16.477
			c-7.182,2.379,2.808-26.36,6.307-35.223c3.565-9.044,11.846-25.861,23.794-28.902c3.588-0.914,7.594-0.634,12.066,1.529
			c12.723,6.188,23.007,14.056,26.978,12.808c4.05-1.273,2.531-6.38-1.833-14.776C78.494,21.887,81.256,9.286,87.973,7.675"/>
		<path fill="#CB021A" d="M87.931,7.706c4.043-1.069,10.229,1.408,17.779,10.338c10.881,12.957,4.275,26.252-0.538,35.958
			c11.846-11.161,16.399-15.453,21.377-20.143c0.305-1.026,3.085-9.397,5.365-10.098c0.498-0.153,1.986,0.775,3.802,6.788
			c13.263,43.898-16.58,54.447-18.004,55.172c-8.817,4.488-15.894,10.914-22.934,15.776c-6.553-1.461-13.871-3.09-19.866-4.426
			c-0.002-0.36-0.183-35.581-19.068-30.94C50.371,67.476,43.681,72.52,35.252,82.8C26.077,93.966,20.538,98.373,17.88,99.252
			c-7.178,2.376,2.806-26.321,6.302-35.172c3.565-9.032,11.842-25.822,23.784-28.86c3.587-0.913,7.59-0.633,12.062,1.526
			c12.717,6.178,22.997,14.036,26.966,12.79c4.048-1.271,2.53-6.371-1.832-14.754C78.458,21.897,81.218,9.314,87.931,7.706"/>
		<path fill="#CD011A" d="M87.89,7.737c4.041-1.067,10.224,1.406,17.771,10.322c10.876,12.938,4.273,26.214-0.538,35.906
			c11.841-11.145,16.392-15.431,21.368-20.113c0.305-1.025,3.083-9.383,5.363-10.083c0.498-0.153,1.984,0.774,3.8,6.777
			c13.256,43.834-16.572,54.368-17.996,55.091c-8.812,4.48-15.886,10.897-22.924,15.753c-6.55-1.459-13.865-3.085-19.857-4.419
			c-0.002-0.359-0.182-35.53-19.06-30.896c-5.471,1.343-12.157,6.379-20.583,16.645c-9.17,11.151-14.707,15.551-17.363,16.43
			c-7.174,2.373,2.805-26.283,6.299-35.121c3.564-9.019,11.836-25.784,23.773-28.818c3.585-0.911,7.587-0.632,12.056,1.524
			c12.711,6.17,22.986,14.015,26.953,12.771c4.046-1.27,2.53-6.361-1.83-14.733C78.421,21.907,81.18,9.344,87.89,7.737"/>
		<path fill="#CE001A" d="M87.849,7.768c4.039-1.065,10.218,1.405,17.762,10.308c10.872,12.918,4.271,26.176-0.537,35.853
			c11.835-11.128,16.384-15.408,21.356-20.084c0.306-1.021,3.083-9.369,5.36-10.068c0.497-0.152,1.983,0.773,3.799,6.768
			c13.25,43.769-16.565,54.288-17.988,55.011c-8.807,4.476-15.88,10.881-22.914,15.729c-6.547-1.458-13.858-3.082-19.848-4.413
			c-0.001-0.358-0.182-35.478-19.051-30.851c-5.468,1.341-12.151,6.37-20.573,16.621c-9.167,11.134-14.7,15.528-17.355,16.406
			c-7.169,2.369,2.804-26.245,6.297-35.07c3.562-9.005,11.831-25.747,23.762-28.776c3.583-0.91,7.583-0.63,12.05,1.522
			c12.705,6.161,22.976,13.995,26.94,12.752c4.043-1.267,2.528-6.352-1.83-14.711C78.383,21.918,81.142,9.373,87.849,7.768"/>
		<path fill="#CF0019" d="M87.808,7.799c4.037-1.064,10.213,1.402,17.754,10.292c10.866,12.9,4.27,26.138-0.537,35.801
			c11.83-11.112,16.376-15.386,21.348-20.055c0.305-1.021,3.081-9.355,5.358-10.054c0.498-0.152,1.982,0.771,3.797,6.758
			c13.241,43.705-16.558,54.208-17.979,54.93c-8.802,4.466-15.872,10.865-22.903,15.707c-6.544-1.455-13.852-3.077-19.839-4.407
			c-0.002-0.358-0.182-35.426-19.042-30.805c-5.466,1.339-12.146,6.361-20.563,16.597c-9.162,11.118-14.692,15.505-17.347,16.381
			c-7.167,2.366,2.802-26.206,6.293-35.018c3.56-8.991,11.826-25.708,23.751-28.733c3.582-0.909,7.58-0.63,12.044,1.52
			c12.7,6.152,22.965,13.975,26.928,12.734c4.042-1.266,2.527-6.342-1.829-14.689C78.347,21.928,81.103,9.401,87.808,7.799"/>
		<path fill="#D00019" d="M87.766,7.83c4.035-1.062,10.209,1.4,17.746,10.277c10.861,12.881,4.269,26.1-0.537,35.748
			c11.824-11.096,16.369-15.363,21.338-20.025c0.305-1.02,3.016-9.602,5.355-10.039c0.477-0.207,1.947,0.781,3.795,6.748
			c12.984,43.717-16.469,54.316-17.971,54.85c-8.154,5.549-15.865,10.85-22.893,15.684c-6.541-1.453-13.846-3.072-19.83-4.4
			c-0.002-0.357-0.123-35.127-19.033-30.76c-5.445,1.408-12.142,6.352-20.556,16.572c-9.158,11.102-14.625,15.695-17.34,16.357
			c-6.953,2.922,2.801-26.168,6.291-34.967c3.559-8.979,11.812-25.701,23.74-28.691c3.578-0.916,7.576-0.629,12.039,1.518
			c12.693,6.143,22.863,13.613,26.916,12.715c3.918-1.602,2.568-6.355-1.828-14.668C78.375,21.904,81.065,9.43,87.766,7.83"/>
	</g>
	<path fill="#BE0E1E" d="M87.625,9.459c3.975-1.061,10.055,1.4,17.48,10.277c10.697,12.881,4.203,26.1-0.529,35.748
		c11.646-11.096,16.123-15.361,21.018-20.025c0.299-1.021,2.969-9.602,5.273-10.037c0.471-0.207,1.92,0.781,3.736,6.746
		c12.792,43.719-16.219,54.316-17.697,54.85c-8.031,5.549-15.627,10.854-22.549,15.684c-6.443-1.451-13.639-3.072-19.531-4.4
		c-0.002-0.357-0.121-35.127-18.748-30.758c-5.363,1.406-11.957,6.35-20.244,16.57c-9.021,11.104-14.406,15.697-17.078,16.357
		c-6.85,2.924,2.756-26.168,6.195-34.967c3.504-8.979,11.635-25.701,23.383-28.691c3.523-0.914,7.461-0.627,11.857,1.518
		c12.504,6.143,22.52,13.613,26.512,12.715c3.859-1.602,2.529-6.355-1.801-14.666C78.377,23.535,81.026,11.059,87.625,9.459"/>
</g>
<g>
	<g>
		<g>
			
				<radialGradient id="SVGID_8_" cx="-2723.4385" cy="623.6328" r="22.0484" gradientTransform="matrix(-1 0 0 -1 -2649.0391 734.875)" gradientUnits="userSpaceOnUse">
				<stop  offset="0" style="stop-color:#A8A8A8"/>
				<stop  offset="0.2822" style="stop-color:#F6F6F6"/>
				<stop  offset="0.5399" style="stop-color:#F6F6F6"/>
				<stop  offset="0.9018" style="stop-color:#B3B3B3"/>
			</radialGradient>
			<path fill="url(#SVGID_8_)" stroke="#9E9E9E" stroke-width="0.3178" d="M77.409,89.477c1.623,0.328,3.223,0.836,4.764,1.525
				c3.721,1.656,7.107,4.35,9.688,7.979c0.391,0.547,0.754,1.104,1.086,1.67c2.289,3.838,3.379,8.074,3.35,12.209
				c-0.006,0.973-0.076,1.938-0.205,2.889c-0.748,5.485-8.309,4.205-12.938,7.64c-0.105,0.077-0.215,0.159-0.322,0.247
				c-4.74,3.9-5.875,10.796-11.424,9.685c-0.945-0.191-1.883-0.441-2.799-0.756c-3.92-1.324-7.566-3.752-10.445-7.17
				c-0.424-0.511-0.834-1.035-1.225-1.582c-2.582-3.633-4.01-7.715-4.354-11.779c-0.145-1.684-0.098-3.361,0.127-5.002
				c0.77-5.609,3.656-10.791,8.475-14.215c0.111-0.082,0.221-0.158,0.33-0.232c3.506-2.393,7.529-3.539,11.574-3.539
				C74.534,89.043,75.981,89.188,77.409,89.477"/>
			<path d="M74.075,101.475c0.656,0.105,1.299,0.279,1.914,0.529c1.481,0.6,2.815,1.611,3.807,3.006
				c0.15,0.209,0.285,0.424,0.416,0.643c0.869,1.48,1.248,3.139,1.174,4.773c-0.018,0.383-0.059,0.766-0.127,1.145
				c-0.389,2.178-1.59,4.227-3.52,5.652c-0.043,0.033-0.09,0.066-0.133,0.096c-2.008,1.427-4.393,1.918-6.627,1.562
				c-0.379-0.059-0.754-0.145-1.123-0.254c-1.568-0.465-3.01-1.371-4.127-2.676c-0.166-0.191-0.324-0.393-0.469-0.602
				c-0.996-1.4-1.514-2.99-1.59-4.59c-0.035-0.664,0.01-1.328,0.127-1.979c0.395-2.225,1.645-4.318,3.652-5.742
				c0.045-0.033,0.09-0.066,0.135-0.1c1.561-1.062,3.336-1.576,5.082-1.576C73.139,101.363,73.612,101.4,74.075,101.475"/>
			<path fill="none" stroke="#000000" stroke-width="2.3342" stroke-linecap="round" stroke-linejoin="round" d="M89.143,94.98
				c-2.117-1.918-4.645-3.457-7.512-4.469C70.164,86.47,57.613,92.425,53.6,103.812c-1.9,5.402-1.545,11.053,0.58,15.934"/>
			<path fill="none" stroke="#000000" stroke-width="3.0349" stroke-linecap="round" stroke-linejoin="round" d="M87.069,82.531
				c-2.752-2.496-6.037-4.498-9.767-5.812c-14.906-5.254-31.219,2.484-36.438,17.289c-2.473,7.021-2.008,14.369,0.758,20.715"/>
		</g>
		<g opacity="0.8">
			<g>
				<g>
					<defs>
						<path id="SVGID_9_" d="M71.157,109.205c-2.305,1.695-5.125,1.799-6.299,0.232c-1.176-1.566-0.258-4.213,2.045-5.908
							c2.305-1.693,5.125-1.797,6.299-0.229C74.377,104.867,73.458,107.512,71.157,109.205z"/>
					</defs>
					<clipPath id="SVGID_10_">
						<use xlink:href="#SVGID_9_"  overflow="visible"/>
					</clipPath>
					<polygon clip-path="url(#SVGID_10_)" points="67.877,100.705 76.799,102.908 70.18,112.029 61.258,109.824 					"/>
				</g>
				<g>
					<defs>
						<path id="SVGID_11_" d="M71.157,109.205c-2.305,1.695-5.125,1.799-6.299,0.232c-1.176-1.566-0.258-4.213,2.045-5.908
							c2.305-1.693,5.125-1.797,6.299-0.229C74.377,104.867,73.458,107.512,71.157,109.205z"/>
					</defs>
					<clipPath id="SVGID_12_">
						<use xlink:href="#SVGID_11_"  overflow="visible"/>
					</clipPath>
					<path clip-path="url(#SVGID_12_)" d="M70.897,108.869c-2.736,2.012-5.797,2.529-6.828,1.15
						c-1.033-1.381,0.352-4.129,3.09-6.148c2.742-2.016,5.801-2.529,6.836-1.154C75.024,104.094,73.639,106.85,70.897,108.869z"/>
				</g>
				<g>
					<defs>
						<path id="SVGID_13_" d="M71.157,109.205c-2.305,1.695-5.125,1.799-6.299,0.232c-1.176-1.566-0.258-4.213,2.045-5.908
							c2.305-1.693,5.125-1.797,6.299-0.229C74.377,104.867,73.458,107.512,71.157,109.205z"/>
					</defs>
					<clipPath id="SVGID_14_">
						<use xlink:href="#SVGID_13_"  overflow="visible"/>
					</clipPath>
					<path clip-path="url(#SVGID_14_)" fill="#2C2B2D" d="M70.731,108.643c-2.492,1.828-5.275,2.305-6.217,1.045
						c-0.94-1.252,0.32-3.758,2.812-5.588c2.498-1.838,5.279-2.309,6.225-1.055C74.485,104.303,73.227,106.805,70.731,108.643z"/>
				</g>
				<g>
					<defs>
						<path id="SVGID_15_" d="M71.157,109.205c-2.305,1.695-5.125,1.799-6.299,0.232c-1.176-1.566-0.258-4.213,2.045-5.908
							c2.305-1.693,5.125-1.797,6.299-0.229C74.377,104.867,73.458,107.512,71.157,109.205z"/>
					</defs>
					<clipPath id="SVGID_16_">
						<use xlink:href="#SVGID_15_"  overflow="visible"/>
					</clipPath>
					<path clip-path="url(#SVGID_16_)" fill="#424144" d="M70.567,108.416c-2.256,1.652-4.762,2.08-5.613,0.949
						c-0.84-1.135,0.295-3.389,2.543-5.047c2.25-1.648,4.758-2.074,5.607-0.945C73.95,104.504,72.809,106.762,70.567,108.416z"/>
				</g>
				<g>
					<defs>
						<path id="SVGID_17_" d="M71.157,109.205c-2.305,1.695-5.125,1.799-6.299,0.232c-1.176-1.566-0.258-4.213,2.045-5.908
							c2.305-1.693,5.125-1.797,6.299-0.229C74.377,104.867,73.458,107.512,71.157,109.205z"/>
					</defs>
					<clipPath id="SVGID_18_">
						<use xlink:href="#SVGID_17_"  overflow="visible"/>
					</clipPath>
					<path clip-path="url(#SVGID_18_)" fill="#505153" d="M70.395,108.193c-2.002,1.471-4.24,1.852-4.99,0.844
						c-0.758-1.01,0.256-3.02,2.258-4.492c2.004-1.475,4.24-1.85,4.992-0.844C73.411,104.709,72.401,106.719,70.395,108.193z"/>
				</g>
				<g>
					<defs>
						<path id="SVGID_19_" d="M71.157,109.205c-2.305,1.695-5.125,1.799-6.299,0.232c-1.176-1.566-0.258-4.213,2.045-5.908
							c2.305-1.693,5.125-1.797,6.299-0.229C74.377,104.867,73.458,107.512,71.157,109.205z"/>
					</defs>
					<clipPath id="SVGID_20_">
						<use xlink:href="#SVGID_19_"  overflow="visible"/>
					</clipPath>
					<path clip-path="url(#SVGID_20_)" fill="#5F5F61" d="M70.229,107.967c-1.756,1.291-3.715,1.625-4.381,0.74
						c-0.656-0.885,0.229-2.648,1.984-3.939c1.758-1.291,3.715-1.623,4.375-0.736C72.87,104.912,71.983,106.678,70.229,107.967z"/>
				</g>
				<g>
					<defs>
						<path id="SVGID_21_" d="M71.157,109.205c-2.305,1.695-5.125,1.799-6.299,0.232c-1.176-1.566-0.258-4.213,2.045-5.908
							c2.305-1.693,5.125-1.797,6.299-0.229C74.377,104.867,73.458,107.512,71.157,109.205z"/>
					</defs>
					<clipPath id="SVGID_22_">
						<use xlink:href="#SVGID_21_"  overflow="visible"/>
					</clipPath>
					<path clip-path="url(#SVGID_22_)" fill="#6C6D6F" d="M70.057,107.744c-1.51,1.111-3.19,1.393-3.764,0.637
						c-0.566-0.76,0.197-2.277,1.707-3.387c1.51-1.111,3.197-1.398,3.766-0.635C72.331,105.117,71.567,106.635,70.057,107.744z"/>
				</g>
				<g>
					<defs>
						<path id="SVGID_23_" d="M71.157,109.205c-2.305,1.695-5.125,1.799-6.299,0.232c-1.176-1.566-0.258-4.213,2.045-5.908
							c2.305-1.693,5.125-1.797,6.299-0.229C74.377,104.867,73.458,107.512,71.157,109.205z"/>
					</defs>
					<clipPath id="SVGID_24_">
						<use xlink:href="#SVGID_23_"  overflow="visible"/>
					</clipPath>
					<path clip-path="url(#SVGID_24_)" fill="#7A7B7C" d="M69.889,107.518c-1.26,0.932-2.674,1.17-3.146,0.533
						c-0.475-0.635,0.16-1.906,1.43-2.836c1.26-0.93,2.676-1.168,3.145-0.533C71.795,105.318,71.159,106.59,69.889,107.518z"/>
				</g>
				<g>
					<defs>
						<path id="SVGID_25_" d="M71.157,109.205c-2.305,1.695-5.125,1.799-6.299,0.232c-1.176-1.566-0.258-4.213,2.045-5.908
							c2.305-1.693,5.125-1.797,6.299-0.229C74.377,104.867,73.458,107.512,71.157,109.205z"/>
					</defs>
					<clipPath id="SVGID_26_">
						<use xlink:href="#SVGID_25_"  overflow="visible"/>
					</clipPath>
					<path clip-path="url(#SVGID_26_)" fill="#868889" d="M69.725,107.293c-1.018,0.75-2.154,0.945-2.537,0.43
						c-0.387-0.51,0.127-1.533,1.146-2.281c1.02-0.75,2.152-0.938,2.539-0.43C71.256,105.525,70.743,106.549,69.725,107.293z"/>
				</g>
				<g>
					<defs>
						<path id="SVGID_27_" d="M71.157,109.205c-2.305,1.695-5.125,1.799-6.299,0.232c-1.176-1.566-0.258-4.213,2.045-5.908
							c2.305-1.693,5.125-1.797,6.299-0.229C74.377,104.867,73.458,107.512,71.157,109.205z"/>
					</defs>
					<clipPath id="SVGID_28_">
						<use xlink:href="#SVGID_27_"  overflow="visible"/>
					</clipPath>
					<path clip-path="url(#SVGID_28_)" fill="#939496" d="M69.555,107.072c-0.772,0.568-1.635,0.715-1.922,0.322
						c-0.291-0.389,0.1-1.164,0.871-1.727c0.771-0.568,1.633-0.715,1.926-0.326C70.721,105.729,70.331,106.502,69.555,107.072z"/>
				</g>
				<g>
					<defs>
						<path id="SVGID_29_" d="M71.157,109.205c-2.305,1.695-5.125,1.799-6.299,0.232c-1.176-1.566-0.258-4.213,2.045-5.908
							c2.305-1.693,5.125-1.797,6.299-0.229C74.377,104.867,73.458,107.512,71.157,109.205z"/>
					</defs>
					<clipPath id="SVGID_30_">
						<use xlink:href="#SVGID_29_"  overflow="visible"/>
					</clipPath>
					<path clip-path="url(#SVGID_30_)" fill="#9FA0A2" d="M69.387,106.846c-0.526,0.389-1.106,0.484-1.312,0.225
						c-0.199-0.264,0.068-0.791,0.6-1.18c0.523-0.383,1.105-0.488,1.312-0.221C70.182,105.936,69.913,106.461,69.387,106.846z"/>
				</g>
				<g>
					<defs>
						<path id="SVGID_31_" d="M71.157,109.205c-2.305,1.695-5.125,1.799-6.299,0.232c-1.176-1.566-0.258-4.213,2.045-5.908
							c2.305-1.693,5.125-1.797,6.299-0.229C74.377,104.867,73.458,107.512,71.157,109.205z"/>
					</defs>
					<clipPath id="SVGID_32_">
						<use xlink:href="#SVGID_31_"  overflow="visible"/>
					</clipPath>
					<path clip-path="url(#SVGID_32_)" fill="#ABACAE" d="M69.221,106.623c-0.276,0.203-0.592,0.256-0.697,0.117
						c-0.107-0.143,0.039-0.42,0.311-0.625c0.285-0.209,0.598-0.26,0.699-0.119C69.647,106.137,69.5,106.414,69.221,106.623z"/>
				</g>
			</g>
		</g>
	</g>
	<g>
		<g>
			
				<radialGradient id="SVGID_33_" cx="-2270.8027" cy="625.3516" r="29.5522" gradientTransform="matrix(1 0 0 -1 2396.125 734.875)" gradientUnits="userSpaceOnUse">
				<stop  offset="0" style="stop-color:#A8A8A8"/>
				<stop  offset="0.2822" style="stop-color:#F6F6F6"/>
				<stop  offset="0.5399" style="stop-color:#F6F6F6"/>
				<stop  offset="0.9018" style="stop-color:#B3B3B3"/>
			</radialGradient>
			<path fill="url(#SVGID_33_)" stroke="#9E9E9E" stroke-width="0.4259" d="M121.286,80.354c-2.176,0.439-4.316,1.119-6.385,2.043
				c-4.988,2.223-9.525,5.832-12.982,10.693c-0.523,0.734-1.012,1.48-1.457,2.24c-3.068,5.143-4.529,10.822-4.49,16.363
				c0.01,1.301,0.103,2.596,0.273,3.873c1.006,7.354,11.141,5.635,17.346,10.236c0.141,0.104,0.287,0.218,0.432,0.334
				c6.354,5.228,7.875,14.47,15.312,12.978c1.266-0.254,2.521-0.59,3.752-1.012c5.254-1.775,10.14-5.027,14-9.611
				c0.568-0.678,1.115-1.387,1.642-2.119c3.461-4.865,5.373-10.34,5.836-15.789c0.192-2.256,0.127-4.502-0.172-6.703
				c-1.029-7.52-4.898-14.463-11.357-19.055c-0.152-0.107-0.295-0.209-0.443-0.309c-4.701-3.207-10.09-4.744-15.514-4.744
				C125.143,79.771,123.2,79.967,121.286,80.354"/>
			<path d="M121.042,94.863c-0.879,0.141-1.74,0.373-2.562,0.711c-1.988,0.803-3.777,2.158-5.104,4.027
				c-0.201,0.279-0.385,0.568-0.559,0.859c-1.164,1.986-1.672,4.209-1.572,6.398c0.025,0.516,0.08,1.027,0.17,1.533
				c0.521,2.922,2.131,5.666,4.717,7.576c0.059,0.047,0.121,0.088,0.18,0.129c2.691,1.914,5.887,2.576,8.881,2.095
				c0.508-0.077,1.01-0.19,1.506-0.34c2.102-0.623,4.035-1.833,5.531-3.585c0.223-0.258,0.432-0.529,0.629-0.807
				c1.336-1.877,2.029-4.006,2.129-6.152c0.049-0.891-0.014-1.781-0.17-2.652c-0.527-2.98-2.205-5.787-4.896-7.697
				c-0.059-0.041-0.121-0.088-0.18-0.133c-2.092-1.424-4.471-2.113-6.812-2.113C122.297,94.713,121.665,94.764,121.042,94.863"/>
			<path fill="none" stroke="#000000" stroke-width="3.1286" stroke-linecap="round" stroke-linejoin="round" d="M105.559,87.73
				c2.838-2.57,6.225-4.633,10.068-5.99c15.369-5.416,32.191,2.566,37.57,17.828c2.551,7.238,2.07,14.812-0.779,21.357"/>
			<path fill="none" stroke="#000000" stroke-width="4.0678" stroke-linecap="round" stroke-linejoin="round" d="M108.338,71.043
				c3.688-3.346,8.092-6.029,13.088-7.787c19.982-7.043,41.844,3.332,48.842,23.174c3.314,9.408,2.689,19.258-1.014,27.766"/>
		</g>
		<g opacity="0.8">
			<g>
				<g>
					<defs>
						<path id="SVGID_34_" d="M128.768,96.158c4.086,2.002,6.164,6.021,4.635,8.979c-1.525,2.955-6.076,3.729-10.156,1.73
							c-4.084-2.002-6.154-6.021-4.631-8.98C120.141,94.932,124.69,94.16,128.768,96.158z"/>
					</defs>
					<clipPath id="SVGID_35_">
						<use xlink:href="#SVGID_34_"  overflow="visible"/>
					</clipPath>
					<polygon clip-path="url(#SVGID_35_)" points="118.393,107.695 115.586,92.971 133.627,95.33 136.43,110.062 					"/>
				</g>
				<g>
					<defs>
						<path id="SVGID_36_" d="M128.768,96.158c4.086,2.002,6.164,6.021,4.635,8.979c-1.525,2.955-6.076,3.729-10.156,1.73
							c-4.084-2.002-6.154-6.021-4.631-8.98C120.141,94.932,124.69,94.16,128.768,96.158z"/>
					</defs>
					<clipPath id="SVGID_37_">
						<use xlink:href="#SVGID_36_"  overflow="visible"/>
					</clipPath>
					<path clip-path="url(#SVGID_37_)" d="M128.446,96.805c4.85,2.379,7.709,6.418,6.358,9.018c-1.346,2.6-6.365,2.777-11.225,0.4
						c-4.861-2.383-7.703-6.422-6.369-9.021C118.553,94.604,123.584,94.426,128.446,96.805z"/>
				</g>
				<g>
					<defs>
						<path id="SVGID_38_" d="M128.768,96.158c4.086,2.002,6.164,6.021,4.635,8.979c-1.525,2.955-6.076,3.729-10.156,1.73
							c-4.084-2.002-6.154-6.021-4.631-8.98C120.141,94.932,124.69,94.16,128.768,96.158z"/>
					</defs>
					<clipPath id="SVGID_39_">
						<use xlink:href="#SVGID_38_"  overflow="visible"/>
					</clipPath>
					<path clip-path="url(#SVGID_39_)" fill="#2C2B2D" d="M128.221,97.229c4.414,2.168,7.021,5.836,5.793,8.207
						c-1.219,2.367-5.795,2.525-10.213,0.361c-4.424-2.17-7.016-5.84-5.797-8.209C119.229,95.223,123.797,95.059,128.221,97.229z"/>
				</g>
				<g>
					<defs>
						<path id="SVGID_40_" d="M128.768,96.158c4.086,2.002,6.164,6.021,4.635,8.979c-1.525,2.955-6.076,3.729-10.156,1.73
							c-4.084-2.002-6.154-6.021-4.631-8.98C120.141,94.932,124.69,94.16,128.768,96.158z"/>
					</defs>
					<clipPath id="SVGID_41_">
						<use xlink:href="#SVGID_40_"  overflow="visible"/>
					</clipPath>
					<path clip-path="url(#SVGID_41_)" fill="#424144" d="M127.999,97.645c3.994,1.961,6.326,5.268,5.232,7.408
						c-1.107,2.129-5.225,2.271-9.215,0.324c-3.98-1.961-6.32-5.268-5.225-7.406C119.895,95.838,124.022,95.703,127.999,97.645z"/>
				</g>
				<g>
					<defs>
						<path id="SVGID_42_" d="M128.768,96.158c4.086,2.002,6.164,6.021,4.635,8.979c-1.525,2.955-6.076,3.729-10.156,1.73
							c-4.084-2.002-6.154-6.021-4.631-8.98C120.141,94.932,124.69,94.16,128.768,96.158z"/>
					</defs>
					<clipPath id="SVGID_43_">
						<use xlink:href="#SVGID_42_"  overflow="visible"/>
					</clipPath>
					<path clip-path="url(#SVGID_43_)" fill="#505153" d="M127.788,98.07c3.543,1.738,5.641,4.695,4.65,6.592
						c-0.979,1.902-4.654,2.031-8.201,0.289c-3.556-1.738-5.635-4.691-4.654-6.588C120.565,96.461,124.233,96.33,127.788,98.07z"/>
				</g>
				<g>
					<defs>
						<path id="SVGID_44_" d="M128.768,96.158c4.086,2.002,6.164,6.021,4.635,8.979c-1.525,2.955-6.076,3.729-10.156,1.73
							c-4.084-2.002-6.154-6.021-4.631-8.98C120.141,94.932,124.69,94.16,128.768,96.158z"/>
					</defs>
					<clipPath id="SVGID_45_">
						<use xlink:href="#SVGID_44_"  overflow="visible"/>
					</clipPath>
					<path clip-path="url(#SVGID_45_)" fill="#5F5F61" d="M127.567,98.494c3.107,1.525,4.938,4.111,4.08,5.781
						c-0.865,1.662-4.084,1.777-7.197,0.254c-3.111-1.527-4.937-4.111-4.072-5.779C121.231,97.088,124.456,96.973,127.567,98.494z"
						/>
				</g>
				<g>
					<defs>
						<path id="SVGID_46_" d="M128.768,96.158c4.086,2.002,6.164,6.021,4.635,8.979c-1.525,2.955-6.076,3.729-10.156,1.73
							c-4.084-2.002-6.154-6.021-4.631-8.98C120.141,94.932,124.69,94.16,128.768,96.158z"/>
					</defs>
					<clipPath id="SVGID_47_">
						<use xlink:href="#SVGID_46_"  overflow="visible"/>
					</clipPath>
					<path clip-path="url(#SVGID_47_)" fill="#6C6D6F" d="M127.352,98.922c2.678,1.309,4.242,3.533,3.508,4.967
						c-0.742,1.43-3.515,1.529-6.189,0.213c-2.676-1.311-4.25-3.535-3.502-4.967C121.905,97.707,124.676,97.607,127.352,98.922z"/>
				</g>
				<g>
					<defs>
						<path id="SVGID_48_" d="M128.768,96.158c4.086,2.002,6.164,6.021,4.635,8.979c-1.525,2.955-6.076,3.729-10.156,1.73
							c-4.084-2.002-6.154-6.021-4.631-8.98C120.141,94.932,124.69,94.16,128.768,96.158z"/>
					</defs>
					<clipPath id="SVGID_49_">
						<use xlink:href="#SVGID_48_"  overflow="visible"/>
					</clipPath>
					<path clip-path="url(#SVGID_49_)" fill="#7A7B7C" d="M127.133,99.344c2.238,1.092,3.553,2.961,2.93,4.154
						c-0.617,1.197-2.936,1.285-5.178,0.18c-2.24-1.092-3.555-2.961-2.936-4.152C122.569,98.324,124.887,98.236,127.133,99.344z"/>
				</g>
				<g>
					<defs>
						<path id="SVGID_50_" d="M128.768,96.158c4.086,2.002,6.164,6.021,4.635,8.979c-1.525,2.955-6.076,3.729-10.156,1.73
							c-4.084-2.002-6.154-6.021-4.631-8.98C120.141,94.932,124.69,94.16,128.768,96.158z"/>
					</defs>
					<clipPath id="SVGID_51_">
						<use xlink:href="#SVGID_50_"  overflow="visible"/>
					</clipPath>
					<path clip-path="url(#SVGID_51_)" fill="#868889" d="M126.909,99.76c1.803,0.889,2.869,2.383,2.365,3.352
						c-0.494,0.971-2.359,1.037-4.166,0.148c-1.805-0.885-2.857-2.381-2.369-3.35C123.243,98.945,125.11,98.877,126.909,99.76z"/>
				</g>
				<g>
					<defs>
						<path id="SVGID_52_" d="M128.768,96.158c4.086,2.002,6.164,6.021,4.635,8.979c-1.525,2.955-6.076,3.729-10.156,1.73
							c-4.084-2.002-6.154-6.021-4.631-8.98C120.141,94.932,124.69,94.16,128.768,96.158z"/>
					</defs>
					<clipPath id="SVGID_53_">
						<use xlink:href="#SVGID_52_"  overflow="visible"/>
					</clipPath>
					<path clip-path="url(#SVGID_53_)" fill="#939496" d="M126.696,100.188c1.371,0.668,2.174,1.811,1.785,2.537
						c-0.375,0.736-1.789,0.783-3.15,0.113c-1.369-0.674-2.176-1.812-1.799-2.543C123.907,99.561,125.323,99.514,126.696,100.188z"
						/>
				</g>
				<g>
					<defs>
						<path id="SVGID_54_" d="M128.768,96.158c4.086,2.002,6.164,6.021,4.635,8.979c-1.525,2.955-6.076,3.729-10.156,1.73
							c-4.084-2.002-6.154-6.021-4.631-8.98C120.141,94.932,124.69,94.16,128.768,96.158z"/>
					</defs>
					<clipPath id="SVGID_55_">
						<use xlink:href="#SVGID_54_"  overflow="visible"/>
					</clipPath>
					<path clip-path="url(#SVGID_55_)" fill="#9FA0A2" d="M126.473,100.613c0.937,0.455,1.474,1.223,1.229,1.73
						c-0.256,0.496-1.223,0.529-2.158,0.066c-0.926-0.455-1.479-1.221-1.223-1.729C124.584,100.18,125.545,100.152,126.473,100.613z
						"/>
				</g>
				<g>
					<defs>
						<path id="SVGID_56_" d="M128.768,96.158c4.086,2.002,6.164,6.021,4.635,8.979c-1.525,2.955-6.076,3.729-10.156,1.73
							c-4.084-2.002-6.154-6.021-4.631-8.98C120.141,94.932,124.69,94.16,128.768,96.158z"/>
					</defs>
					<clipPath id="SVGID_57_">
						<use xlink:href="#SVGID_56_"  overflow="visible"/>
					</clipPath>
					<path clip-path="url(#SVGID_57_)" fill="#ABACAE" d="M126.26,101.025c0.488,0.244,0.781,0.66,0.648,0.928
						c-0.141,0.27-0.654,0.277-1.144,0.043c-0.502-0.248-0.793-0.662-0.649-0.922C125.245,100.801,125.758,100.791,126.26,101.025z"
						/>
				</g>
			</g>
		</g>
	</g>
</g>
</svg>
