<?xml version="1.0" encoding="utf-8"?>
<!-- Generator: Adobe Illustrator 14.0.0, SVG Export Plug-In . SVG Version: 6.00 Build 43363)  -->
<!DOCTYPE svg PUBLIC "-//W3C//DTD SVG 1.1//EN" "http://www.w3.org/Graphics/SVG/1.1/DTD/svg11.dtd">
<svg version="1.1" id="Ebene_1" xmlns="http://www.w3.org/2000/svg" xmlns:xlink="http://www.w3.org/1999/xlink" x="0px" y="0px"
	 width="18px" height="18px" viewBox="0 0 18 18" enable-background="new 0 0 18 18" xml:space="preserve">
<circle fill="#FFA700" cx="9" cy="9" r="9"/>
<polyline fill="#FFFFFF" points="3.749,10.735 3.749,7.121 8.28,7.121 "/>
<polyline fill="#FFFFFF" points="10.444,10.735 10.444,7.121 14.835,7.121 "/>
<path fill="#FFFFFF" d="M15.167,10.137c0,0-3.499,5.376-6.536,5.376c-3.038,0-4.275-2.688-4.275-2.688s3.076,0,5.406,0
	C12.091,12.824,15.167,10.137,15.167,10.137z"/>
<path fill="#FF5600" d="M18,2.995c0,1.655-4.029,2.997-9,2.997c-4.971,0-9-1.342-9-2.997C0,1.341,4.029,0,9,0
	C13.971,0,18,1.341,18,2.995z M9,0.997c-3.695,0-6.69,0.895-6.69,1.998c0,1.104,2.995,2,6.69,2c3.693,0,6.689-0.896,6.689-2
	C15.689,1.892,12.693,0.997,9,0.997z"/>
</svg>
