<?xml version="1.0" encoding="utf-8"?>
<!-- Generator: Adobe Illustrator 14.0.0, SVG Export Plug-In . SVG Version: 6.00 Build 43363)  -->
<!DOCTYPE svg PUBLIC "-//W3C//DTD SVG 1.1//EN" "http://www.w3.org/Graphics/SVG/1.1/DTD/svg11.dtd">
<svg version="1.1" id="Ebene_1" xmlns="http://www.w3.org/2000/svg" xmlns:xlink="http://www.w3.org/1999/xlink" x="0px" y="0px"
	 width="18px" height="18px" viewBox="0 0 18 18" enable-background="new 0 0 18 18" xml:space="preserve">
<g>
	<circle fill="#FFA700" cx="9" cy="9" r="9"/>
</g>
<g>
	<path fill="#FF0000" d="M13.614,12.115c-0.575,0.372-1.095,0.274-1.636,0.583c-0.612,0.35-0.943,1.099-1.539,1.426
		c-0.459,0.253-1.306,0.484-2.179,0.225c-0.829-0.244-1.184-1.139-1.96-1.559c-0.539-0.289-1.146-0.354-1.898-0.424
		c0.979-0.729,1.688-3.098,2.943-3.354c0.46-0.099,0.896,0.43,1.394,0.605c0.298-0.016,0.52-0.188,0.778,0.046
		c0.631-0.181,0.973-0.834,1.727-0.573c0.131,0.049,0.391,0.243,0.497,0.354C12.432,10.169,12.84,11.628,13.614,12.115z"/>
</g>
<path fill="none" stroke="#FFFFFF" stroke-width="2" stroke-linecap="round" d="M3.61,7.113C4.231,5.675,5.9,5.015,7.337,5.636"/>
<path fill="none" stroke="#FFFFFF" stroke-width="2" stroke-linecap="round" d="M14.28,7.113c-0.621-1.438-2.289-2.098-3.729-1.479"
	/>
</svg>
