<?xml version="1.0" encoding="utf-8"?>
<!-- Generator: Adobe Illustrator 14.0.0, SVG Export Plug-In . SVG Version: 6.00 Build 43363)  -->
<!DOCTYPE svg PUBLIC "-//W3C//DTD SVG 1.1//EN" "http://www.w3.org/Graphics/SVG/1.1/DTD/svg11.dtd">
<svg version="1.1" id="Ebene_1" xmlns="http://www.w3.org/2000/svg" xmlns:xlink="http://www.w3.org/1999/xlink" x="0px" y="0px"
	 width="18px" height="18px" viewBox="0 0 18 18" enable-background="new 0 0 18 18" xml:space="preserve">
<g>
	<circle fill="#FFA700" cx="9" cy="9" r="9"/>
</g>
<g>
	<path fill="#FF0000" d="M13.614,13.328c-0.575,0.372-1.095,0.276-1.635,0.583c-0.613,0.35-0.944,1.099-1.54,1.426
		c-0.459,0.253-1.303,0.484-2.176,0.224c-0.829-0.244-1.184-1.138-1.96-1.558c-0.539-0.289-1.148-0.352-1.901-0.424
		c0.98-0.729,1.688-3.097,2.946-3.355c0.46-0.096,0.895,0.43,1.391,0.608c0.298-0.013,0.52-0.187,0.778,0.046
		c0.631-0.18,0.973-0.834,1.727-0.573c0.131,0.047,0.391,0.243,0.497,0.354C12.432,11.382,12.84,12.841,13.614,13.328z"/>
</g>
<polygon fill="#FFFFFF" points="1.691,7.934 3.905,3.322 7.949,9.252 "/>
<polygon fill="#FFFFFF" points="9.95,9.252 13.994,3.322 16.209,7.934 "/>
</svg>
