<?xml version="1.0" encoding="utf-8"?>
<!-- Generator: Adobe Illustrator 14.0.0, SVG Export Plug-In . SVG Version: 6.00 Build 43363)  -->
<!DOCTYPE svg PUBLIC "-//W3C//DTD SVG 1.1//EN" "http://www.w3.org/Graphics/SVG/1.1/DTD/svg11.dtd">
<svg version="1.1" id="Ebene_1" xmlns="http://www.w3.org/2000/svg" xmlns:xlink="http://www.w3.org/1999/xlink" x="0px" y="0px"
	 width="18px" height="18px" viewBox="0 0 18 18" enable-background="new 0 0 18 18" xml:space="preserve">
<circle fill="#FFA700" cx="9" cy="9" r="9"/>
<path fill="#FFFFFF" d="M14.5,11.652c0,0-2.436,3.184-5.591,3.184S3.5,11.652,3.5,11.652H14.5z"/>
<g>
	<path fill="#FFFFFF" d="M8.448,9.869C8.131,10.035,7.595,10.2,6.981,10.2c-0.872,0-1.658-0.298-2.166-0.853
		C4.509,9.041,4.298,8.626,4.212,8.121H3.599V7.607h0.537c0-0.041,0-0.083,0-0.124c0-0.108,0.01-0.215,0.02-0.307H3.599V6.663h0.642
		c0.115-0.514,0.374-0.936,0.719-1.259c0.518-0.489,1.217-0.771,2.07-0.771c0.575,0,1.054,0.124,1.37,0.257L8.16,5.652
		C7.911,5.544,7.518,5.437,7.087,5.437c-0.479,0-0.901,0.149-1.217,0.456C5.668,6.074,5.525,6.348,5.448,6.663h2.511v0.514H5.333
		c-0.019,0.091-0.019,0.19-0.019,0.298c0,0.05,0,0.083,0,0.132h2.645v0.514h-2.54C5.486,8.469,5.63,8.742,5.832,8.924
		c0.326,0.307,0.786,0.448,1.284,0.448c0.469,0,0.91-0.141,1.13-0.24L8.448,9.869z"/>
	<path fill="#FFFFFF" d="M13.583,9.869c-0.316,0.166-0.853,0.331-1.466,0.331c-0.872,0-1.658-0.298-2.166-0.853
		C9.645,9.041,9.434,8.626,9.347,8.121H8.734V7.607h0.537c0-0.041,0-0.083,0-0.124c0-0.108,0.01-0.215,0.02-0.307H8.734V6.663h0.642
		c0.115-0.514,0.374-0.936,0.719-1.259c0.518-0.489,1.217-0.771,2.07-0.771c0.574,0,1.054,0.124,1.37,0.257l-0.24,0.762
		c-0.249-0.108-0.642-0.215-1.073-0.215c-0.479,0-0.9,0.149-1.217,0.456c-0.201,0.182-0.345,0.456-0.421,0.771h2.51v0.514h-2.625
		c-0.02,0.091-0.02,0.19-0.02,0.298c0,0.05,0,0.083,0,0.132h2.645v0.514h-2.539c0.067,0.348,0.211,0.621,0.412,0.803
		c0.326,0.307,0.786,0.448,1.284,0.448c0.47,0,0.91-0.141,1.131-0.24L13.583,9.869z"/>
</g>
</svg>
