<?xml version="1.0" encoding="utf-8"?>
<!-- Generator: Adobe Illustrator 14.0.0, SVG Export Plug-In . SVG Version: 6.00 Build 43363)  -->
<!DOCTYPE svg PUBLIC "-//W3C//DTD SVG 1.1//EN" "http://www.w3.org/Graphics/SVG/1.1/DTD/svg11.dtd">
<svg version="1.1" id="Ebene_1" xmlns="http://www.w3.org/2000/svg" xmlns:xlink="http://www.w3.org/1999/xlink" x="0px" y="0px"
	 width="18px" height="18px" viewBox="0 0 18 18" enable-background="new 0 0 18 18" xml:space="preserve">
<circle fill="#FFA700" cx="9" cy="9" r="9"/>
<path fill="#FFFFFF" d="M14.5,12.494c0,0-2.435,3.184-5.591,3.184c-3.155,0-5.409-3.184-5.409-3.184s3.077,0.734,5.5,0.734
	C11.421,13.229,14.5,12.494,14.5,12.494z"/>
<g>
	<g>
		<path fill="#FFFFFF" d="M14.278,5.342c-0.253-1.192-1.141-1.42-1.751-1.487v2.668c1.547,0.803,2.313,1.183,2.313,2.354
			c0,1.249-1.055,1.736-2.313,1.888v0.943h-0.408v-0.943c-1.188,0-1.906-0.369-2.23-0.553V8.801h0.181
			c0.264,1.097,0.924,1.66,2.051,1.66V7.402c-1.092-0.553-2.135-1.117-2.135-2.18c0-0.77,0.61-1.572,2.135-1.659V2.88h0.408v0.684
			c0.562,0.064,1.401,0.151,1.931,0.574v1.205H14.278z M12.107,3.855c-1.164,0.174-1.235,0.9-1.235,1.14
			c0,0.575,0.516,0.922,1.235,1.355V3.855z M12.527,10.461c0.396-0.065,1.367-0.228,1.367-1.334c0-0.771-0.611-1.117-1.367-1.54
			V10.461z"/>
	</g>
</g>
<g>
	<g>
		<path fill="#FFFFFF" d="M7.787,5.342c-0.252-1.192-1.14-1.42-1.751-1.487v2.668C7.583,7.326,8.35,7.706,8.35,8.877
			c0,1.249-1.055,1.736-2.315,1.888v0.943H5.627v-0.943c-1.187,0-1.907-0.369-2.23-0.553V8.801h0.18
			c0.264,1.097,0.923,1.66,2.051,1.66V7.402C4.536,6.85,3.493,6.286,3.493,5.223c0-0.77,0.612-1.572,2.135-1.659V2.88h0.408v0.684
			C6.6,3.628,7.439,3.714,7.967,4.138v1.205H7.787z M5.616,3.855c-1.164,0.174-1.236,0.9-1.236,1.14
			c0,0.575,0.516,0.922,1.235,1.355L5.616,3.855L5.616,3.855z M6.035,10.461c0.396-0.065,1.368-0.228,1.368-1.334
			c0-0.771-0.612-1.117-1.368-1.54V10.461z"/>
	</g>
</g>
</svg>
