<?xml version="1.0" encoding="utf-8"?>
<!-- Generator: Adobe Illustrator 14.0.0, SVG Export Plug-In . SVG Version: 6.00 Build 43363)  -->
<!DOCTYPE svg PUBLIC "-//W3C//DTD SVG 1.1//EN" "http://www.w3.org/Graphics/SVG/1.1/DTD/svg11.dtd">
<svg version="1.1" id="Ebene_1" xmlns="http://www.w3.org/2000/svg" xmlns:xlink="http://www.w3.org/1999/xlink" x="0px" y="0px"
	 width="18px" height="18px" viewBox="0 0 18 18" enable-background="new 0 0 18 18" xml:space="preserve">
<g>
	<circle fill="#FFA700" cx="9" cy="9" r="9"/>
	<path fill="#FFFFFF" d="M13.584,13.2c0,0-2.029,2.653-4.659,2.653S4.417,13.2,4.417,13.2S6.981,13.813,9,13.813
		C11.018,13.813,13.584,13.2,13.584,13.2z"/>
	<g>
		<g>
			<path fill="#FFFFFF" d="M14.278,5.603c-0.252-1.319-1.14-1.571-1.751-1.644v2.95c1.547,0.888,2.314,1.308,2.314,2.603
				c0,1.38-1.055,1.92-2.314,2.088v1.043h-0.408V11.6c-1.188,0-1.906-0.408-2.23-0.612v-1.56h0.18
				c0.264,1.212,0.924,1.836,2.051,1.836V7.881c-1.092-0.611-2.135-1.235-2.135-2.41c0-0.852,0.611-1.739,2.135-1.835V2.88h0.408
				v0.756c0.563,0.071,1.402,0.167,1.931,0.635v1.332H14.278z M12.107,3.959c-1.164,0.192-1.235,0.995-1.235,1.26
				c0,0.636,0.516,1.02,1.235,1.499V3.959z M12.527,11.264c0.396-0.072,1.367-0.252,1.367-1.476c0-0.852-0.611-1.235-1.367-1.703
				V11.264z"/>
		</g>
	</g>
	<g>
		<g>
			<path fill="#FFFFFF" d="M7.787,5.603c-0.252-1.319-1.14-1.571-1.751-1.644v2.95C7.583,7.797,8.35,8.217,8.35,9.512
				c0,1.38-1.055,1.92-2.315,2.088v1.043H5.627V11.6c-1.187,0-1.907-0.408-2.23-0.612v-1.56h0.18
				c0.264,1.212,0.923,1.836,2.051,1.836V7.881C4.536,7.27,3.493,6.646,3.493,5.471c0-0.852,0.612-1.739,2.135-1.835V2.88h0.408
				v0.756c0.564,0.071,1.403,0.167,1.931,0.635v1.332H7.787z M5.616,3.959C4.452,4.151,4.38,4.954,4.38,5.219
				c0,0.636,0.516,1.02,1.235,1.499V3.959z M6.035,11.264c0.396-0.072,1.368-0.252,1.368-1.476c0-0.852-0.612-1.235-1.368-1.703
				V11.264z"/>
		</g>
	</g>
</g>
</svg>
