<?xml version="1.0" encoding="utf-8"?>
<!-- Generator: Adobe Illustrator 14.0.0, SVG Export Plug-In . SVG Version: 6.00 Build 43363)  -->
<!DOCTYPE svg PUBLIC "-//W3C//DTD SVG 1.1//EN" "http://www.w3.org/Graphics/SVG/1.1/DTD/svg11.dtd">
<svg version="1.1" id="Ebene_1" xmlns="http://www.w3.org/2000/svg" xmlns:xlink="http://www.w3.org/1999/xlink" x="0px" y="0px"
	 width="18px" height="18px" viewBox="0 0 18 18" enable-background="new 0 0 18 18" xml:space="preserve">
<circle fill="#FFA700" cx="9" cy="9" r="9"/>
<rect x="5.459" y="4.402" fill="#FFFFFF" width="2.013" height="4.219"/>
<rect x="10.459" y="4.402" fill="#FFFFFF" width="2.014" height="4.219"/>
<path fill="#FF0000" d="M12.343,12.087l1.368,1.853c0.771,1.045,0.587,2.488-0.411,3.227l0,0c-0.998,0.734-2.433,0.484-3.204-0.561
	L8.32,13.65l-0.329-0.539c0,0,1.215,0.351,2.688-0.178C12.152,12.406,12.343,12.087,12.343,12.087z"/>
<g>
	<path fill="none" stroke="#FFFFFF" stroke-width="1.8" d="M13.285,11.26c0,0-1.555,1.941-4.341,1.941s-4.703-2.158-4.703-2.158"/>
	<line fill="none" stroke="#FFFFFF" stroke-width="1.3" stroke-linecap="round" x1="5.052" y1="10.1" x2="3.612" y2="11.877"/>
	<line fill="none" stroke="#FFFFFF" stroke-width="1.3" stroke-linecap="round" x1="14.174" y1="12.165" x2="12.543" y2="10.292"/>
</g>
</svg>
