<?xml version="1.0" encoding="utf-8"?>
<!-- Generator: Adobe Illustrator 14.0.0, SVG Export Plug-In . SVG Version: 6.00 Build 43363)  -->
<!DOCTYPE svg PUBLIC "-//W3C//DTD SVG 1.1//EN" "http://www.w3.org/Graphics/SVG/1.1/DTD/svg11.dtd">
<svg version="1.1" id="Ebene_1" xmlns="http://www.w3.org/2000/svg" xmlns:xlink="http://www.w3.org/1999/xlink" x="0px" y="0px"
	 width="18px" height="18px" viewBox="0 0 18 18" enable-background="new 0 0 18 18" xml:space="preserve">
<path fill="#FFA700" d="M1.495,0c0,0-1.824,2.429-1.295,3.726c1.044,2.559,4.854,2.869,4.854,2.869s0.489-0.813,0.864-1.442
	C6.297,4.524,7.043,3.48,7.043,3.48s-2.045,0.46-3.549-0.186C0.767,2.125,1.495,0,1.495,0z"/>
<path fill="#FFA700" d="M14.609,3.294c-1.504,0.646-3.549,0.186-3.549,0.186s0.746,1.044,1.126,1.672
	c0.376,0.629,0.864,1.442,0.864,1.442s3.81-0.31,4.854-2.869C18.433,2.429,16.608,0,16.608,0S17.337,2.125,14.609,3.294z"/>
<circle fill="#FFA700" cx="9" cy="9" r="9"/>
<polygon fill="#FFFFFF" points="14.444,3.562 9,6.595 3.555,3.562 4.989,2.425 9,4.673 13.115,2.547 "/>
<path fill="#FFFFFF" d="M14.22,12.061c0,0-2.866,3.951-5.355,3.951s-5.212-3.951-5.212-3.951"/>
<polygon fill="#E2001A" points="12.604,10.602 9.936,10.602 9.936,8.195 12.604,6.729 "/>
<polygon fill="#E2001A" points="7.892,10.502 5.225,10.502 5.225,6.595 7.892,8.095 "/>
</svg>
