<?xml version="1.0" encoding="utf-8"?>
<!-- Generator: Adobe Illustrator 14.0.0, SVG Export Plug-In . SVG Version: 6.00 Build 43363)  -->
<!DOCTYPE svg PUBLIC "-//W3C//DTD SVG 1.1//EN" "http://www.w3.org/Graphics/SVG/1.1/DTD/svg11.dtd">
<svg version="1.1"
	 id="svg3125" xmlns:sodipodi="http://sodipodi.sourceforge.net/DTD/sodipodi-0.dtd" xmlns:dc="http://purl.org/dc/elements/1.1/" xmlns:rdf="http://www.w3.org/1999/02/22-rdf-syntax-ns#" xmlns:inkscape="http://www.inkscape.org/namespaces/inkscape" sodipodi:docname="forum_logo.svg" xmlns:cc="http://creativecommons.org/ns#" inkscape:version="0.48.4 r9943 custom" xmlns:svg="http://www.w3.org/2000/svg"
	 xmlns="http://www.w3.org/2000/svg" xmlns:xlink="http://www.w3.org/1999/xlink" x="0px" y="0px" width="552px" height="63px"
	 viewBox="0 0 552 63" enable-background="new 0 0 552 63" xml:space="preserve">
<sodipodi:namedview  id="namedview3077" pagecolor="#ffffff" inkscape:pageshadow="2" inkscape:cx="273.53744" bordercolor="#666666" inkscape:window-x="0" showgrid="false" gridtolerance="10" showguides="true" inkscape:cy="48.672972" inkscape:current-layer="svg3125" inkscape:window-y="22" borderopacity="1" inkscape:zoom="1.5942721" inkscape:guide-bbox="true" guidetolerance="10" inkscape:window-width="1153" inkscape:pageopacity="0" objecttolerance="10" inkscape:window-height="719" inkscape:window-maximized="0">
	<sodipodi:guide  id="guide3079" position="218.281,31.5" orientation="0,1"></sodipodi:guide>
</sodipodi:namedview>
<g id="g3133" transform="matrix(1.0015898,0,0,-1.0015898,36,48.899832)">
	<g id="g3919" transform="translate(98.338,18.118339)">
		<path id="path3921" inkscape:connector-curvature="0" fill="#FF5600" d="M1.997-0.653c0,11.654,7.745,16.152,16.375,16.152h15.712
			V6.943H22.061c-4.132,0-6.492-1.4-6.492-7.669c0-6.124,2.433-7.233,6.564-7.233h11.951v-8.555H18.297
			C9.445-16.514,1.997-12.308,1.997-0.653 M-22.644-3.457c-2.139,0-3.248-0.739-3.248-2.804s1.183-2.73,3.248-2.73h7.303v5.534
			H-22.644z M-19.546,7.386h-15.713v8.113h19.622c8.631,0,12.837-5.013,12.837-14.455v-17.559h-24.861
			c-6.565,0-10.919,2.582-10.919,9.59c0,7.156,4.503,9.662,10.919,9.662h12.32C-15.489,5.837-16.524,7.386-19.546,7.386
			 M-96.341,0.598c0,10.036,4.575,14.978,14.68,14.901h23.751c10.034,0,14.608-4.865,14.608-14.901v-17.112h-12.983v16.228
			c0,4.944-0.886,6.788-4.648,6.788h-3.246v-23.016h-11.213V6.502h-3.246c-3.836,0-4.72-1.844-4.72-6.788v-16.228h-12.983V0.598z"/>
	</g>
	<g id="g3923" transform="translate(294.5499,21.713039)">
		<path id="path3925" inkscape:connector-curvature="0" fill="#FFA700" d="M1.996-0.653c-2.472,0-4.464-2.021-4.464-4.513
			c0-2.504,1.992-4.528,4.464-4.528c2.473,0,4.481,2.024,4.481,4.528C6.477-2.674,4.469-0.653,1.996-0.653 M19.763-13.65
			c-4.936-3.783-9.938-8.717-17.022-8.717c-10.315,0-18.68,7.73-18.68,17.267c0,9.536,8.365,17.271,18.68,17.271
			c6.678,0,11.431-4.236,15.847-8.126c1.748-1.562,6.278-4.967,9.26-1.397c2.979,3.556,5.566,6.883,6.421,7.893
			c1.515,1.782,3.097,2.751,5.663-1.392c2.589-4.19,0.77-5.581-0.763-6.973c-1.531-1.394-3.158-2.378-4.359-3.706
			c-3.532-3.922-1.718-9.127,0.611-11.015c2.484-1.993,2.948-2.305,5.643-4.054c1.791-1.156,0.55-2.96-1.809-4.606
			c-2.381-1.665-6.572,0.187-8.087,1.628c-1.556,1.482-2.289,2.223-4.081,4.12C25.314-13.57,21.549-12.281,19.763-13.65
			 M-73.797-2.997c0,10.036,4.573,14.978,14.678,14.902h23.755c10.033,0,14.603-4.866,14.603-14.902v-17.114h-12.98v16.23
			c0,4.944-0.885,6.789-4.647,6.789h-3.246v-23.019H-52.85V2.908h-3.241c-3.837,0-4.722-1.845-4.722-6.789v-16.23h-12.984V-2.997z
			 M-96.449,5.344c-3.32,0-5.238-1.257-5.752-6.348h11.208C-91.286,3.791-92.836,5.344-96.449,5.344 M-95.711-11.997h14.235v-8.114
			h-16.67c-10.254,0-17.411,4.501-17.411,16.157c0,11.656,7.082,16.598,18.813,16.598c12.317,0,17.85-5.534,17.85-15.788v-3.613
			h-12.027h-11.135C-101.466-11.035-99.401-11.997-95.711-11.997 M-156.13,11.905h21.099c10.106,0,14.681-4.866,14.681-14.902
			v-17.114h-12.986v16.23c0,4.944-1.034,6.789-4.72,6.789h-5.088v-23.019h-12.985V11.905z"/>
	</g>
</g>
</svg>
