<?xml version="1.0" encoding="UTF-8" standalone="no"?>
<!-- Created with Inkscape (http://www.inkscape.org/) -->

<svg
   xmlns:dc="http://purl.org/dc/elements/1.1/"
   xmlns:cc="http://creativecommons.org/ns#"
   xmlns:rdf="http://www.w3.org/1999/02/22-rdf-syntax-ns#"
   xmlns:svg="http://www.w3.org/2000/svg"
   xmlns="http://www.w3.org/2000/svg"
   xmlns:sodipodi="http://sodipodi.sourceforge.net/DTD/sodipodi-0.dtd"
   xmlns:inkscape="http://www.inkscape.org/namespaces/inkscape"
   version="1.1"
   width="552"
   height="63"
   id="svg3125"
   xml:space="preserve"
   inkscape:version="0.48.4 r9943 custom"
   sodipodi:docname="forum_logo.svg"><sodipodi:namedview
     pagecolor="#ffffff"
     bordercolor="#666666"
     borderopacity="1"
     objecttolerance="10"
     gridtolerance="10"
     guidetolerance="10"
     inkscape:pageopacity="0"
     inkscape:pageshadow="2"
     inkscape:window-width="1153"
     inkscape:window-height="719"
     id="namedview3077"
     showgrid="false"
     showguides="true"
     inkscape:guide-bbox="true"
     inkscape:zoom="1.5942721"
     inkscape:cx="273.53744"
     inkscape:cy="48.672972"
     inkscape:window-x="0"
     inkscape:window-y="22"
     inkscape:window-maximized="0"
     inkscape:current-layer="svg3125"><sodipodi:guide
       orientation="0,1"
       position="218.281,31.5"
       id="guide3079" /></sodipodi:namedview><metadata
     id="metadata3131"><rdf:RDF><cc:Work
         rdf:about=""><dc:format>image/svg+xml</dc:format><dc:type
           rdf:resource="http://purl.org/dc/dcmitype/StillImage" /><dc:title /></cc:Work></rdf:RDF></metadata><defs
     id="defs3129"><clipPath
       id="clipPath3141"><path
         d="m 0,1161.813 820.029,0 L 820.029,0 0,0 0,1161.813 z"
         id="path3143"
         inkscape:connector-curvature="0" /></clipPath><clipPath
       id="clipPath3149"><path
         d="m 342.908,1145.27 15.714,0 0,-15.71 -15.714,0 0,15.71 z"
         id="path3151"
         inkscape:connector-curvature="0" /></clipPath><clipPath
       id="clipPath3153"><path
         d="m 345.209,1131.862 c 0.695,-0.695 1.518,-1.259 2.432,-1.655 0.957,-0.416 2.013,-0.646 3.124,-0.646 2.17,0 4.134,0.879 5.556,2.301 1.421,1.422 2.301,3.386 2.301,5.555 0,0.784 -0.114,1.541 -0.328,2.254 -0.377,1.264 -1.065,2.394 -1.973,3.302 -1.422,1.422 -3.386,2.301 -5.556,2.301 -1.111,0 -2.167,-0.23 -3.124,-0.645 -0.914,-0.396 -1.737,-0.962 -2.432,-1.656 -0.908,-0.908 -1.595,-2.038 -1.973,-3.302 -0.214,-0.713 -0.328,-1.47 -0.328,-2.254 0,-2.169 0.879,-4.133 2.301,-5.555"
         id="path3155"
         inkscape:connector-curvature="0" /></clipPath><clipPath
       id="clipPath3253"><path
         d="m 503.796,1159.19 15.715,0 0,-15.71 -15.715,0 0,15.71 z"
         id="path3255"
         inkscape:connector-curvature="0" /></clipPath><clipPath
       id="clipPath3257"><path
         d="m 506.098,1145.78 c 0.694,-0.695 1.517,-1.259 2.432,-1.656 0.957,-0.416 2.013,-0.645 3.123,-0.645 2.17,0 4.135,0.878 5.557,2.301 1.421,1.421 2.301,3.386 2.301,5.555 0,0.784 -0.115,1.54 -0.328,2.253 -0.377,1.264 -1.065,2.394 -1.973,3.303 -1.422,1.422 -3.387,2.301 -5.557,2.301 -1.11,0 -2.166,-0.23 -3.123,-0.646 -0.915,-0.396 -1.738,-0.961 -2.432,-1.655 -0.909,-0.909 -1.595,-2.039 -1.973,-3.303 -0.214,-0.713 -0.329,-1.469 -0.329,-2.253 0,-2.169 0.88,-4.134 2.302,-5.555"
         id="path3259"
         inkscape:connector-curvature="0" /></clipPath><clipPath
       id="clipPath3357"><path
         d="m 265.264,1151.91 23.09,0 0,-23.09 -23.09,0 0,23.09 z"
         id="path3359"
         inkscape:connector-curvature="0" /></clipPath><clipPath
       id="clipPath3361"><path
         d="m 268.645,1132.205 c 1.021,-1.02 2.23,-1.85 3.574,-2.433 1.406,-0.61 2.958,-0.948 4.59,-0.948 3.188,0 6.074,1.292 8.164,3.381 2.088,2.089 3.381,4.975 3.381,8.163 0,1.151 -0.168,2.262 -0.483,3.311 -0.555,1.857 -1.564,3.517 -2.898,4.852 -2.09,2.09 -4.976,3.382 -8.164,3.382 -1.632,0 -3.184,-0.339 -4.59,-0.949 -1.344,-0.582 -2.553,-1.413 -3.574,-2.433 -1.334,-1.335 -2.344,-2.995 -2.899,-4.852 -0.314,-1.049 -0.482,-2.16 -0.482,-3.311 0,-3.188 1.292,-6.074 3.381,-8.163"
         id="path3363"
         inkscape:connector-curvature="0" /></clipPath><clipPath
       id="clipPath3461"><path
         d="m 525.774,1149.94 23.09,0 0,-23.09 -23.09,0 0,23.09 z"
         id="path3463"
         inkscape:connector-curvature="0" /></clipPath><clipPath
       id="clipPath3465"><path
         d="m 529.155,1130.232 c 1.022,-1.021 2.231,-1.85 3.574,-2.433 1.407,-0.611 2.959,-0.948 4.59,-0.948 3.189,0 6.075,1.292 8.164,3.381 2.088,2.089 3.381,4.975 3.381,8.163 0,1.151 -0.168,2.262 -0.482,3.311 -0.555,1.857 -1.565,3.517 -2.899,4.852 -2.089,2.089 -4.975,3.381 -8.164,3.381 -1.631,0 -3.183,-0.338 -4.59,-0.948 -1.343,-0.582 -2.552,-1.413 -3.574,-2.433 -1.334,-1.335 -2.343,-2.995 -2.898,-4.852 -0.315,-1.049 -0.483,-2.16 -0.483,-3.311 0,-3.188 1.292,-6.074 3.381,-8.163"
         id="path3467"
         inkscape:connector-curvature="0" /></clipPath><clipPath
       id="clipPath3565"><path
         d="m 288.364,1132.24 38,0 0,-38 -38,0 0,38 z"
         id="path3567"
         inkscape:connector-curvature="0" /></clipPath><clipPath
       id="clipPath3569"><path
         d="m 293.928,1099.807 c 1.679,-1.68 3.671,-3.045 5.88,-4.004 2.315,-1.005 4.87,-1.561 7.556,-1.561 5.247,0 9.997,2.126 13.435,5.565 3.438,3.438 5.565,8.188 5.565,13.435 0,1.894 -0.277,3.723 -0.793,5.449 -0.914,3.056 -2.575,5.788 -4.772,7.986 -3.438,3.439 -8.188,5.565 -13.435,5.565 -2.686,0 -5.241,-0.557 -7.556,-1.562 -2.209,-0.958 -4.201,-2.324 -5.88,-4.003 -2.197,-2.198 -3.859,-4.93 -4.772,-7.986 -0.516,-1.726 -0.792,-3.555 -0.792,-5.449 0,-5.247 2.125,-9.997 5.564,-13.435"
         id="path3571"
         inkscape:connector-curvature="0" /></clipPath><clipPath
       id="clipPath3669"><path
         d="m 369.774,1100.94 66,0 0,-66 -66,0 0,66 z"
         id="path3671"
         inkscape:connector-curvature="0" /></clipPath><clipPath
       id="clipPath3673"><path
         d="m 379.438,1044.605 c 2.917,-2.917 6.376,-5.289 10.213,-6.954 4.022,-1.745 8.459,-2.712 13.123,-2.712 9.114,0 17.364,3.694 23.335,9.666 5.972,5.972 9.665,14.222 9.665,23.334 0,3.29 -0.48,6.467 -1.377,9.465 -1.586,5.307 -4.472,10.054 -8.288,13.87 -5.971,5.973 -14.221,9.665 -23.335,9.665 -4.664,0 -9.101,-0.966 -13.123,-2.711 -3.837,-1.665 -7.296,-4.038 -10.213,-6.954 -3.815,-3.816 -6.701,-8.563 -8.288,-13.87 -0.896,-2.998 -1.376,-6.175 -1.376,-9.465 0,-9.112 3.693,-17.362 9.664,-23.334"
         id="path3675"
         inkscape:connector-curvature="0" /></clipPath><clipPath
       id="clipPath3773"><path
         d="m 475.997,1117.82 40,0 0,-40 -40,0 0,40 z"
         id="path3775"
         inkscape:connector-curvature="0" /></clipPath><clipPath
       id="clipPath3777"><path
         d="m 481.854,1083.673 c 1.768,-1.767 3.865,-3.205 6.19,-4.214 2.437,-1.058 5.127,-1.644 7.953,-1.644 5.524,0 10.524,2.239 14.143,5.858 3.619,3.619 5.857,8.619 5.857,14.142 0,1.994 -0.291,3.919 -0.834,5.736 -0.962,3.217 -2.711,6.094 -5.023,8.407 -3.619,3.619 -8.619,5.857 -14.143,5.857 -2.826,0 -5.516,-0.586 -7.953,-1.643 -2.325,-1.009 -4.422,-2.447 -6.19,-4.214 -2.312,-2.313 -4.061,-5.19 -5.023,-8.407 -0.543,-1.817 -0.834,-3.742 -0.834,-5.736 0,-5.523 2.238,-10.523 5.857,-14.142"
         id="path3779"
         inkscape:connector-curvature="0" /></clipPath><clipPath
       id="clipPath3895"><path
         d="m 0,1161.813 820.029,0 L 820.029,0 0,0 0,1161.813 z"
         id="path3897"
         inkscape:connector-curvature="0" /></clipPath><clipPath
       id="clipPath3915"><path
         d="m 0,1161.813 820.029,0 L 820.029,0 0,0 0,1161.813 z"
         id="path3917"
         inkscape:connector-curvature="0" /></clipPath><clipPath
       id="clipPath3955"><path
         d="m 0,1161.813 820.029,0 L 820.029,0 0,0 0,1161.813 z"
         id="path3957"
         inkscape:connector-curvature="0" /></clipPath><clipPath
       id="clipPath3985"><path
         d="m 0,1161.813 820.029,0 L 820.029,0 0,0 0,1161.813 z"
         id="path3987"
         inkscape:connector-curvature="0" /></clipPath><clipPath
       id="clipPath3997"><path
         d="m 46.2324,179.515 237.9706,0 0,-145.1898 -237.9706,0 0,145.1898 z"
         id="path3999"
         inkscape:connector-curvature="0" /></clipPath><clipPath
       id="clipPath4039"><path
         d="m 0,1161.813 820.029,0 L 820.029,0 0,0 0,1161.813 z"
         id="path4041"
         inkscape:connector-curvature="0" /></clipPath><clipPath
       id="clipPath4047"><path
         d="m 559.59,179.515 237.971,0 0,-145.1898 -237.971,0 0,145.1898 z"
         id="path4049"
         inkscape:connector-curvature="0" /></clipPath><clipPath
       id="clipPath4071"><path
         d="m 0,1161.813 820.029,0 L 820.029,0 0,0 0,1161.813 z"
         id="path4073"
         inkscape:connector-curvature="0" /></clipPath><clipPath
       id="clipPath4079"><path
         d="m 301.422,179.515 237.973,0 0,-145.1898 -237.973,0 0,145.1898 z"
         id="path4081"
         inkscape:connector-curvature="0" /></clipPath><clipPath
       id="clipPath4107"><path
         d="m 0,1161.813 820.029,0 L 820.029,0 0,0 0,1161.813 z"
         id="path4109"
         inkscape:connector-curvature="0" /></clipPath><clipPath
       id="clipPath4127"><path
         d="m 0,1161.813 820.029,0 L 820.029,0 0,0 0,1161.813 z"
         id="path4129"
         inkscape:connector-curvature="0" /></clipPath><clipPath
       id="clipPath4191"><path
         d="m 0,1161.813 820.029,0 L 820.029,0 0,0 0,1161.813 z"
         id="path4193"
         inkscape:connector-curvature="0" /></clipPath><clipPath
       id="clipPath4207"><path
         d="m 0,1161.813 820.029,0 L 820.029,0 0,0 0,1161.813 z"
         id="path4209"
         inkscape:connector-curvature="0" /></clipPath><linearGradient
       x1="0"
       y1="0"
       x2="1"
       y2="0"
       id="linearGradient4231"
       gradientUnits="userSpaceOnUse"
       gradientTransform="matrix(0,15,15,0,410.94873,632.61572)"
       spreadMethod="pad"><stop
         id="stop4233"
         style="stop-color:#ffffff;stop-opacity:1"
         offset="0" /><stop
         id="stop4235"
         style="stop-color:#e6e7e8;stop-opacity:1"
         offset="1" /></linearGradient><clipPath
       id="clipPath4243"><path
         d="m 0,1161.813 820.029,0 L 820.029,0 0,0 0,1161.813 z"
         id="path4245"
         inkscape:connector-curvature="0" /></clipPath><linearGradient
       x1="0"
       y1="0"
       x2="1"
       y2="0"
       id="linearGradient4267"
       gradientUnits="userSpaceOnUse"
       gradientTransform="matrix(0,15,15,0,410.94971,608.61572)"
       spreadMethod="pad"><stop
         id="stop4269"
         style="stop-color:#ffffff;stop-opacity:1"
         offset="0" /><stop
         id="stop4271"
         style="stop-color:#e6e7e8;stop-opacity:1"
         offset="1" /></linearGradient><clipPath
       id="clipPath4279"><path
         d="m 0,1161.813 820.029,0 L 820.029,0 0,0 0,1161.813 z"
         id="path4281"
         inkscape:connector-curvature="0" /></clipPath><linearGradient
       x1="0"
       y1="0"
       x2="1"
       y2="0"
       id="linearGradient4303"
       gradientUnits="userSpaceOnUse"
       gradientTransform="matrix(0,15,15,0,594.14648,608.61572)"
       spreadMethod="pad"><stop
         id="stop4305"
         style="stop-color:#ffffff;stop-opacity:1"
         offset="0" /><stop
         id="stop4307"
         style="stop-color:#e6e7e8;stop-opacity:1"
         offset="1" /></linearGradient><clipPath
       id="clipPath4315"><path
         d="m 0,1161.813 820.029,0 L 820.029,0 0,0 0,1161.813 z"
         id="path4317"
         inkscape:connector-curvature="0" /></clipPath><linearGradient
       x1="0"
       y1="0"
       x2="1"
       y2="0"
       id="linearGradient4339"
       gradientUnits="userSpaceOnUse"
       gradientTransform="matrix(0,15,15,0,594.14746,632.61572)"
       spreadMethod="pad"><stop
         id="stop4341"
         style="stop-color:#ffffff;stop-opacity:1"
         offset="0" /><stop
         id="stop4343"
         style="stop-color:#e6e7e8;stop-opacity:1"
         offset="1" /></linearGradient><clipPath
       id="clipPath4351"><path
         d="m 0,1161.813 820.029,0 L 820.029,0 0,0 0,1161.813 z"
         id="path4353"
         inkscape:connector-curvature="0" /></clipPath><clipPath
       id="clipPath4367"><path
         d="m 0,1161.813 820.029,0 L 820.029,0 0,0 0,1161.813 z"
         id="path4369"
         inkscape:connector-curvature="0" /></clipPath><clipPath
       id="clipPath4435"><path
         d="m 0,1161.813 820.029,0 L 820.029,0 0,0 0,1161.813 z"
         id="path4437"
         inkscape:connector-curvature="0" /></clipPath><clipPath
       id="clipPath4449"><path
         d="m 55.391,532.968 28.088,0 0,24.077 -28.088,0 0,-24.077 z"
         id="path4451"
         inkscape:connector-curvature="0" /></clipPath><clipPath
       id="clipPath4637"><path
         d="m 0,1161.813 820.029,0 L 820.029,0 0,0 0,1161.813 z"
         id="path4639"
         inkscape:connector-curvature="0" /></clipPath></defs><g
     transform="matrix(1.0015898,0,0,-1.0015898,36,48.899832)"
     id="g3133"><g
       transform="translate(98.338,18.118339)"
       id="g3919"><path
         d="m 0,0 c 0,11.654 7.744,16.152 16.375,16.152 l 15.712,0 0,-8.556 -12.023,0 c -4.132,0 -6.492,-1.4 -6.492,-7.67 0,-6.123 2.433,-7.232 6.564,-7.232 l 11.951,0 0,-8.556 -15.787,0 C 7.448,-15.862 0,-11.655 0,0 m -24.641,-2.804 c -2.139,0 -3.248,-0.739 -3.248,-2.804 0,-2.064 1.183,-2.729 3.248,-2.729 l 7.303,0 0,5.533 -7.303,0 z m 3.098,10.843 -15.713,0 0,8.113 19.622,0 c 8.631,0 12.837,-5.013 12.837,-14.455 l 0,-17.559 -24.861,0 c -6.565,0 -10.919,2.583 -10.919,9.591 0,7.156 4.502,9.662 10.919,9.662 l 12.32,0 c -0.148,3.099 -1.183,4.648 -4.205,4.648 M -98.338,1.251 c 0,10.036 4.575,14.978 14.68,14.901 l 23.751,0 c 10.034,0 14.608,-4.865 14.608,-14.901 l 0,-17.113 -12.983,0 0,16.229 c 0,4.944 -0.886,6.788 -4.648,6.788 l -3.246,0 0,-23.017 -11.213,0 0,23.017 -3.246,0 c -3.836,0 -4.72,-1.844 -4.72,-6.788 l 0,-16.229 -12.983,0 0,17.113 z"
         id="path3921"
         style="fill:#ff5600;fill-opacity:1;fill-rule:nonzero;stroke:none"
         inkscape:connector-curvature="0" /></g><g
       transform="translate(294.5499,21.713039)"
       id="g3923"><path
         d="m 0,0 c -2.472,0 -4.464,-2.021 -4.464,-4.512 0,-2.505 1.992,-4.529 4.464,-4.529 2.472,0 4.481,2.024 4.481,4.529 C 4.481,-2.021 2.472,0 0,0 m 17.766,-12.997 c -4.935,-3.783 -9.938,-8.716 -17.022,-8.716 -10.315,0 -18.68,7.728 -18.68,17.266 0,9.536 8.365,17.271 18.68,17.271 6.678,0 11.432,-4.236 15.847,-8.126 1.748,-1.562 6.279,-4.967 9.26,-1.397 2.979,3.556 5.566,6.883 6.422,7.893 1.514,1.782 3.096,2.751 5.662,-1.392 2.589,-4.19 0.771,-5.581 -0.763,-6.973 -1.531,-1.394 -3.158,-2.378 -4.36,-3.706 -3.532,-3.923 -1.717,-9.128 0.612,-11.014 2.484,-1.994 2.948,-2.305 5.643,-4.055 1.791,-1.157 0.55,-2.959 -1.808,-4.605 -2.381,-1.667 -6.572,0.186 -8.087,1.627 -1.556,1.483 -2.289,2.223 -4.081,4.121 -1.773,1.886 -5.539,3.175 -7.325,1.806 m -93.56,10.653 c 0,10.036 4.573,14.978 14.678,14.902 l 23.755,0 c 10.033,0 14.603,-4.866 14.603,-14.902 l 0,-17.113 -12.981,0 0,16.229 c 0,4.944 -0.885,6.789 -4.646,6.789 l -3.246,0 0,-23.018 -11.216,0 0,23.018 -3.241,0 c -3.837,0 -4.722,-1.845 -4.722,-6.789 l 0,-16.229 -12.984,0 0,17.113 z m -22.652,8.341 c -3.32,0 -5.238,-1.257 -5.752,-6.348 l 11.208,0 c -0.293,4.795 -1.843,6.348 -5.456,6.348 m 0.738,-17.34 14.235,0 0,-8.114 -16.67,0 c -10.254,0 -17.411,4.5 -17.411,16.156 0,11.656 7.082,16.598 18.813,16.598 12.317,0 17.85,-5.534 17.85,-15.788 l 0,-3.613 -12.027,0 -11.135,0 c 0.59,-4.279 2.655,-5.239 6.345,-5.239 m -60.419,23.901 21.099,0 c 10.106,0 14.681,-4.866 14.681,-14.902 l 0,-17.113 -12.986,0 0,16.229 c 0,4.944 -1.034,6.789 -4.72,6.789 l -5.089,0 0,-23.018 -12.985,0 0,32.015 z"
         id="path3925"
         style="fill:#ffa700;fill-opacity:1;fill-rule:nonzero;stroke:none"
         inkscape:connector-curvature="0" /></g></g></svg>