<?xml version="1.0" encoding="UTF-8" standalone="no"?>
<!-- Created with Inkscape (http://www.inkscape.org/) -->

<svg
   xmlns:dc="http://purl.org/dc/elements/1.1/"
   xmlns:cc="http://creativecommons.org/ns#"
   xmlns:rdf="http://www.w3.org/1999/02/22-rdf-syntax-ns#"
   xmlns:svg="http://www.w3.org/2000/svg"
   xmlns="http://www.w3.org/2000/svg"
   version="1.1"
   width="15"
   height="11"
   id="svg9854">
  <defs
     id="defs9856" />
  <metadata
     id="metadata9859">
    <rdf:RDF>
      <cc:Work
         rdf:about="">
        <dc:format>image/svg+xml</dc:format>
        <dc:type
           rdf:resource="http://purl.org/dc/dcmitype/StillImage" />
        <dc:title></dc:title>
      </cc:Work>
    </rdf:RDF>
  </metadata>
  <g
     transform="translate(0,-1041.3622)"
     id="layer1">
    <g
       transform="matrix(1.0247383,0,0,1.0247383,-242.30145,730.92695)"
       id="g9836">
      <path
         d="m 241.32185,308.3677 c 0.73375,0 1.3575,-0.26 1.8725,-0.7775 0.5175,-0.51875 0.7775,-1.145 0.7775,-1.87875 0,-0.735 -0.26,-1.3575 -0.7775,-1.8725 -0.515,-0.52125 -1.13875,-0.7825 -1.8725,-0.7825 -0.735,0 -1.36125,0.26125 -1.87875,0.7825 -0.52125,0.515 -0.77625,1.1375 -0.77625,1.8725 0,0.73375 0.255,1.36 0.77625,1.87875 0.5175,0.5175 1.14375,0.7775 1.87875,0.7775"
         id="path9548"
         style="fill:#ff5600;fill-opacity:1;fill-rule:nonzero;stroke:none" />
      <path
         d="m 246.15948,311.1692 c -0.01,-0.235 -0.0412,-0.4825 -0.095,-0.755 -0.0475,-0.26875 -0.11126,-0.51875 -0.1825,-0.75 -0.0725,-0.23 -0.17375,-0.4525 -0.29875,-0.67375 -0.12125,-0.21875 -0.2625,-0.405 -0.42875,-0.5575 -0.1575,-0.155 -0.3525,-0.2775 -0.5875,-0.37125 -0.235,-0.0937 -0.49125,-0.14 -0.77125,-0.14 -0.0437,0 -0.1475,0.05 -0.3,0.14875 -0.15,0.10125 -0.3175,0.21 -0.50125,0.3325 -0.1875,0.12375 -0.4325,0.235 -0.74,0.3325 -0.31,0.095 -0.6175,0.15125 -0.9325,0.15125 l 1.2175,0.82125 -0.53,0.495 c 0,0 0.325,0.86125 0.48875,1.6025 0.1625,0.74 0.245,1.76375 0.245,1.76375 l -1.42125,-0.04 -1.41,0.04 c 0,0 0.0813,-1.02375 0.24375,-1.76375 0.16375,-0.74125 0.49,-1.6025 0.49,-1.6025 l -0.53125,-0.495 1.2075,-0.82125 c -0.31375,0 -0.6275,-0.0563 -0.935,-0.15125 -0.31125,-0.0975 -0.5525,-0.20875 -0.7375,-0.3325 -0.1875,-0.1225 -0.35125,-0.23125 -0.50625,-0.3325 -0.15125,-0.0987 -0.25,-0.14875 -0.29625,-0.14875 -0.28125,0 -0.5375,0.0462 -0.76875,0.14 -0.23125,0.0937 -0.4325,0.21625 -0.59125,0.37125 -0.16125,0.1525 -0.30625,0.33875 -0.43375,0.5575 -0.12375,0.22125 -0.22375,0.44375 -0.2925,0.67375 -0.0787,0.23125 -0.14,0.48125 -0.1875,0.75 -0.0425,0.2725 -0.0762,0.52 -0.0962,0.755 -0.0188,0.2325 -0.025,0.46875 -0.025,0.71375 0,0.555 0.16875,0.99125 0.505,1.31125 0.3425,0.31875 0.785,0.48125 1.3425,0.48125 l 6.04375,0 c 0.5525,0 1.0025,-0.1625 1.33875,-0.48125 0.335,-0.32 0.50375,-0.75625 0.50375,-1.31125 0,-0.245 -0.005,-0.48125 -0.0263,-0.71375"
         id="path9550"
         style="fill:#ff5600;fill-opacity:1;fill-rule:nonzero;stroke:none" />
      <path
         d="m 246.26198,307.55108 -3.52626,3.65 c -0.12624,0.13375 -0.19249,0.2925 -0.18749,0.47624 0.002,0.18501 0.0713,0.34375 0.2025,0.4775 l 0.57375,0.55125 c 0.1275,0.13626 0.28499,0.20125 0.47375,0.19875 0.185,-0.004 0.34374,-0.0737 0.4725,-0.21125 l 3.51875,-3.6475 c -0.34375,-0.12875 -0.64875,-0.325 -0.915,-0.58875 -0.26875,-0.2625 -0.47375,-0.56499 -0.6125,-0.90625"
         id="path9552"
         style="fill:#ff5600;fill-opacity:1;fill-rule:nonzero;stroke:none" />
      <path
         d="m 248.49222,304.16858 c -0.13499,10e-4 -0.31999,0.0475 -0.55499,0.13125 -0.46375,0.17 -0.84001,0.46375 -1.1275,0.885 -0.28375,0.41749 -0.42501,0.87249 -0.41625,1.37124 0.007,0.65001 0.245,1.20626 0.71625,1.66001 0.46,0.45624 1.01875,0.67999 1.6625,0.67249 0.64875,-0.009 1.19625,-0.24624 1.65,-0.71875 0.4525,-0.4675 0.675,-1.03375 0.6675,-1.68125 -0.002,-0.20625 -0.035,-0.4175 -0.0975,-0.64 -0.06,-0.22249 -0.14125,-0.4075 -0.25,-0.565 -0.0387,-0.0562 -0.0888,-0.0838 -0.15125,-0.0862 -0.0563,0.005 -0.105,0.0337 -0.145,0.0875 l -0.8625,1.5625 -1.17375,0.0138 -0.57375,-1.00625 c 0.009,-0.0225 0.0913,-0.16 0.24625,-0.425 0.155,-0.26251 0.29375,-0.50375 0.415,-0.72 0.12125,-0.21875 0.18,-0.34001 0.18,-0.375 0,-0.0525 -0.0188,-0.0913 -0.0538,-0.12375 -0.0375,-0.0312 -0.08,-0.0437 -0.13125,-0.0425"
         id="path9554"
         style="fill:#ff5600;fill-opacity:1;fill-rule:nonzero;stroke:none" />
    </g>
  </g>
</svg>
