<?xml version="1.0" encoding="UTF-8" standalone="no"?>
<!-- Created with Inkscape (http://www.inkscape.org/) -->

<svg
   xmlns:dc="http://purl.org/dc/elements/1.1/"
   xmlns:cc="http://creativecommons.org/ns#"
   xmlns:rdf="http://www.w3.org/1999/02/22-rdf-syntax-ns#"
   xmlns:svg="http://www.w3.org/2000/svg"
   xmlns="http://www.w3.org/2000/svg"
   version="1.1"
   width="10"
   height="11"
   id="svg9854">
  <defs
     id="defs9856" />
  <metadata
     id="metadata9859">
    <rdf:RDF>
      <cc:Work
         rdf:about="">
        <dc:format>image/svg+xml</dc:format>
        <dc:type
           rdf:resource="http://purl.org/dc/dcmitype/StillImage" />
        <dc:title></dc:title>
      </cc:Work>
    </rdf:RDF>
  </metadata>
  <g
     transform="translate(0,-1041.3622)"
     id="layer1">
    <g
       transform="translate(-236.33,716.91904)"
       id="g9832">
      <path
         d="m 241.32185,329.93632 c 0.73375,0 1.3575,-0.25999 1.8725,-0.77749 0.5175,-0.51875 0.7775,-1.14501 0.7775,-1.87876 0,-0.73499 -0.26,-1.35749 -0.7775,-1.8725 -0.515,-0.52125 -1.13875,-0.78249 -1.8725,-0.78249 -0.735,0 -1.36125,0.26124 -1.87875,0.78249 -0.52125,0.51501 -0.77625,1.1375 -0.77625,1.8725 0,0.73375 0.255,1.36001 0.77625,1.87876 0.5175,0.5175 1.14375,0.77749 1.87875,0.77749"
         id="path9528"
         style="fill:#ff5600;fill-opacity:1;fill-rule:nonzero;stroke:none" />
      <path
         d="m 246.15948,332.73783 c -0.01,-0.235 -0.0412,-0.4825 -0.095,-0.755 -0.0475,-0.26876 -0.11126,-0.51875 -0.1825,-0.75 -0.0725,-0.23 -0.17375,-0.4525 -0.29875,-0.67376 -0.12125,-0.21874 -0.2625,-0.40499 -0.42875,-0.5575 -0.1575,-0.15499 -0.3525,-0.27749 -0.5875,-0.37125 -0.235,-0.0937 -0.49125,-0.14 -0.77125,-0.14 -0.0437,0 -0.1475,0.05 -0.3,0.14876 -0.15,0.10125 -0.3175,0.21 -0.50125,0.3325 -0.1875,0.12374 -0.4325,0.23499 -0.74,0.33249 -0.31,0.095 -0.6175,0.15125 -0.9325,0.15125 l 1.2175,0.82125 -0.53,0.495 c 0,0 0.325,0.86125 0.48875,1.6025 0.1625,0.74 0.245,1.76375 0.245,1.76375 l -1.42125,-0.04 -1.41,0.04 c 0,0 0.0813,-1.02375 0.24375,-1.76375 0.16375,-0.74124 0.49,-1.6025 0.49,-1.6025 l -0.53125,-0.495 1.2075,-0.82125 c -0.31375,0 -0.6275,-0.0562 -0.935,-0.15125 -0.31125,-0.0975 -0.5525,-0.20875 -0.7375,-0.33249 -0.1875,-0.1225 -0.35125,-0.23125 -0.50625,-0.3325 -0.15125,-0.0987 -0.25,-0.14876 -0.29625,-0.14876 -0.28125,0 -0.5375,0.0463 -0.76875,0.14 -0.23125,0.0938 -0.4325,0.21626 -0.59125,0.37125 -0.16125,0.1525 -0.30625,0.33875 -0.43375,0.5575 -0.12375,0.22126 -0.22375,0.44376 -0.2925,0.67376 -0.0787,0.23124 -0.14,0.48124 -0.1875,0.75 -0.0425,0.27249 -0.0762,0.52 -0.0962,0.755 -0.0188,0.2325 -0.025,0.46875 -0.025,0.71375 0,0.555 0.16875,0.99125 0.505,1.31125 0.3425,0.31875 0.785,0.48125 1.3425,0.48125 l 6.04375,0 c 0.5525,0 1.0025,-0.1625 1.33875,-0.48125 0.335,-0.32 0.50375,-0.75625 0.50375,-1.31125 0,-0.245 -0.005,-0.48125 -0.0263,-0.71375"
         id="path9530"
         style="fill:#ff5600;fill-opacity:1;fill-rule:nonzero;stroke:none" />
    </g>
  </g>
</svg>
