<?xml version="1.0" encoding="UTF-8" standalone="no"?>
<!-- Created with Inkscape (http://www.inkscape.org/) -->

<svg
   xmlns:dc="http://purl.org/dc/elements/1.1/"
   xmlns:cc="http://creativecommons.org/ns#"
   xmlns:rdf="http://www.w3.org/1999/02/22-rdf-syntax-ns#"
   xmlns:svg="http://www.w3.org/2000/svg"
   xmlns="http://www.w3.org/2000/svg"
   version="1.1"
   width="10"
   height="11"
   id="svg9854">
  <defs
     id="defs9856" />
  <metadata
     id="metadata9859">
    <rdf:RDF>
      <cc:Work
         rdf:about="">
        <dc:format>image/svg+xml</dc:format>
        <dc:type
           rdf:resource="http://purl.org/dc/dcmitype/StillImage" />
        <dc:title></dc:title>
      </cc:Work>
    </rdf:RDF>
  </metadata>
  <g
     transform="translate(0,-1041.3622)"
     id="layer1">
    <g
       transform="translate(-235.72328,693.35958)"
       id="g9829">
      <path
         d="m 242.59373,348.93358 c 0.51749,0.515 0.77749,1.1375 0.77749,1.8725 0,0.73375 -0.26,1.36 -0.77749,1.87875 -0.51501,0.5175 -1.13875,0.7775 -1.87251,0.7775 -0.735,0 -1.36125,-0.26 -1.87875,-0.7775 -0.52125,-0.51875 -0.77625,-1.145 -0.77625,-1.87875 0,-0.735 0.255,-1.3575 0.77625,-1.8725 0.5175,-0.52126 1.14375,-0.7825 1.87875,-0.7825 0.73375,0 1.3575,0.26124 1.87251,0.7825 m 2.99125,8.045 c 0,0.55375 -0.16875,0.99125 -0.50375,1.31 -0.33625,0.31875 -0.78625,0.48125 -1.33875,0.48125 l -6.04376,0 c -0.5575,0 -1,-0.1625 -1.3425,-0.48125 -0.33624,-0.31875 -0.505,-0.75625 -0.505,-1.31 0,-0.24625 0.006,-0.4825 0.025,-0.715 0.02,-0.23375 0.0538,-0.48125 0.0963,-0.755 0.0475,-0.26876 0.10875,-0.5175 0.18874,-0.75 0.0675,-0.22875 0.1675,-0.4525 0.29125,-0.67375 0.1275,-0.21875 0.2725,-0.405 0.43375,-0.5575 0.16,-0.155 0.36,-0.2775 0.59125,-0.37126 0.23125,-0.0925 0.4875,-0.13874 0.76875,-0.13874 0.0463,0 0.145,0.05 0.29625,0.14875 0.155,0.1 0.31875,0.21 0.50625,0.33125 0.185,0.12375 0.42625,0.23499 0.7375,0.3325 0.3075,0.095 0.62125,0.15124 0.935,0.15124 0.315,0 0.6225,-0.0562 0.9325,-0.15124 0.3075,-0.0975 0.5525,-0.20876 0.74,-0.3325 0.18375,-0.12125 0.35125,-0.23125 0.50125,-0.33125 0.1525,-0.0987 0.25625,-0.14875 0.3,-0.14875 0.28,0 0.53625,0.0462 0.77125,0.13874 0.235,0.0938 0.43,0.21626 0.5875,0.37126 0.16625,0.15249 0.3075,0.33874 0.42875,0.5575 0.125,0.22125 0.22625,0.445 0.29875,0.67375 0.0713,0.2325 0.135,0.48124 0.1825,0.75 0.0538,0.27375 0.085,0.52125 0.095,0.755 0.0213,0.2325 0.0263,0.46875 0.0263,0.715"
         id="path9526"
         style="fill:#ff5600;fill-opacity:1;fill-rule:nonzero;stroke:none" />
    </g>
  </g>
</svg>
